<?xml version="1.0" encoding="UTF-8" standalone="no"?>
<!DOCTYPE svg PUBLIC "-//W3C//DTD SVG 1.1//EN" "http://www.w3.org/Graphics/SVG/1.1/DTD/svg11.dtd">
<svg width="100%" height="100%" viewBox="0 0 1024 768" version="1.1" xmlns="http://www.w3.org/2000/svg" xmlns:xlink="http://www.w3.org/1999/xlink" xml:space="preserve" xmlns:serif="http://www.serif.com/" style="fill-rule:evenodd;clip-rule:evenodd;stroke-linejoin:round;stroke-miterlimit:2;">
    <g transform="matrix(-1,0,0,1,1024.67,0)">
        <path d="M525.318,94.758L516.035,119.332L510.086,135.078C509.382,136.939 508.991,138.848 507.631,140.14C504.425,143.182 498.671,145.118 494.818,147.258L487.074,151.56C485.743,152.3 482.792,153.23 481.859,154.457C480.833,155.81 481.318,158.295 481.318,160.167L481.318,206.757L521.318,201.757L468.027,263.247C463.649,268.298 458.334,273.16 455.072,279.037C448.13,291.547 441.344,304.147 434.482,316.701L415.318,351.757L472.787,349.311C487.666,348.678 502.951,349.631 517.287,345.413C529.105,341.937 540.922,338.463 552.74,334.986C554.312,334.523 559.208,334 560.322,332.736C561.365,331.55 561.343,327.073 561.638,325.557C567.216,296.887 574.317,265.293 590.597,240.614C602.269,222.924 618.019,207.434 632.443,192.007C638.073,185.987 643.801,180.037 649.231,173.833C650.622,172.244 652.631,170.441 653.551,168.511C654.145,167.264 654.975,164.888 654.606,163.781C654.446,163.301 650.735,161.579 650.203,161.237C646.442,158.82 642.714,156.352 638.978,153.897C628.48,146.994 617.992,140.075 607.434,133.265C599.203,127.955 590.995,122.325 582.313,117.762C573.314,113.032 563.403,109.703 553.968,105.966C544.433,102.19 534.883,98.454 525.318,94.757" style="fill:rgb(0,173,181);"/>
        <g transform="matrix(-1,0,0,1,1024.67,0)">
            <path d="M504.557,665.93C511.394,665.288 518.277,665.277 525.107,664.546C529.561,664.068 533.98,662.64 538.485,663.086C541.39,663.374 546.24,664.316 546.988,667.774C547.401,669.685 545.964,672.365 545.396,674.127C545.022,675.287 543.006,679.551 544.016,680.741C545.364,682.331 548.47,679.17 549.426,678.21C552.109,675.515 558.58,664.296 561.976,672.242C556.919,674.038 552.186,688.627 560.276,683.542C563.768,681.346 563.671,677.479 566.108,674.582C569.284,670.805 576.006,674.182 580.038,675.385C587.583,677.635 596.14,681.371 602.157,686.553C605.399,689.344 612.937,699.229 608.403,703.463C605.993,705.712 598.844,703.827 596.176,703.376C591.114,702.522 586.113,701.578 580.999,701.044C569.678,699.861 558.279,699.679 546.906,699.909C535.172,700.147 523.453,700.833 511.729,701.326C505.794,701.576 497.658,704.325 491.964,702.399C488.112,701.096 488.775,697.634 489.312,694.226C490.131,689.028 490.992,683.838 491.964,678.665C492.552,675.535 492.353,668.791 494.836,666.474C497.253,664.22 501.683,666.2 504.557,665.93Z" style="fill:white;"/>
        </g>
        <g transform="matrix(-1,0,0,1,1024.67,0)">
            <path d="M175.762,532.342C171.922,528.725 174.804,525.915 177.538,522.862C180.613,519.425 183.223,515.632 186.197,512.112C193.009,504.043 200.307,496.352 207.377,488.51C214.17,480.975 221.728,474.288 228.805,467.045C235.355,460.339 240.379,452.363 246.625,445.397C254.478,453.927 269.545,454.513 280.108,457.56C284.73,458.893 294.399,460.08 296.053,465.573C297.593,470.689 292.468,477.728 291.805,482.798C291.187,487.532 293.52,494.866 287.273,496.408C283.136,497.43 278.247,496.652 273.923,497.42C270.316,498.06 265.041,499.759 262.671,496.119C260.053,492.097 262.657,485.762 258.063,482.701C255.969,485.147 254.527,487.938 254.955,491.167C255.151,492.623 256.786,494.942 256.461,496.427C255.738,499.733 250.381,502.166 248.361,499.161C245.724,495.237 247.587,489.226 243.863,485.603C239.567,481.423 240.091,490.646 240.605,493.003C239.499,492.812 238.015,492.934 238.089,494.422L241.939,494.422C239.46,496.437 240.943,496.275 241.239,499.022C241.375,500.296 241.307,501.969 240.567,503.072C238.917,505.531 234.275,505.861 231.897,507.401C224.821,511.983 220.285,520.531 214.294,526.383C211.291,529.316 207.961,531.516 204.419,533.716C201.404,535.588 198.577,538.491 195.267,539.813C188.677,542.446 180.34,536.656 175.762,532.342Z" style="fill:white;"/>
        </g>
        <g transform="matrix(-1,0,0,1,1024.67,0)">
            <path d="M297.234,257.846C297.786,259.284 298.369,260.712 298.983,262.124C296.776,262.124 294.485,262.778 294.586,259.756C294.624,258.619 296.431,255.612 297.234,257.846Z" style="fill:white;"/>
        </g>
        <g transform="matrix(-1,0,0,1,1024.67,0)">
            <path d="M303.299,272.163C303.662,276.362 294.229,274.263 293.662,270.379C293,265.844 296.498,267.335 299.043,267.634C302.379,268.026 302.938,268.003 303.299,272.163Z" style="fill:white;"/>
        </g>
        <g transform="matrix(-1,0,0,1,1024.67,0)">
            <path d="M308.996,285.13C308.396,287.396 310.303,289.143 311.02,291.096C307.959,291.467 290.933,289.356 291.171,285.116C291.48,279.591 308.448,287.193 308.996,285.13Z" style="fill:white;"/>
        </g>
        <g transform="matrix(-1,0,0,1,1024.67,0)">
            <path d="M319.288,300.289L321.673,306.146C314.372,304.179 306.587,303.356 299.084,302.429C297.295,302.208 286.01,301.389 288.796,296.926C290.615,294.013 298.456,297.059 300.826,297.669C303.499,298.356 306.094,298.659 308.852,298.951C311.392,299.219 317.168,301.903 319.288,300.289Z" style="fill:white;"/>
        </g>
        <g transform="matrix(-1,0,0,1,1024.67,0)">
            <path d="M323.851,314.762L323.85,314.763C323.851,314.763 323.851,314.763 323.851,314.762L324.631,313.968L326.343,313.8C323.604,320.12 317.578,316.614 312.11,315.438C303.711,313.628 294.908,313.808 286.361,313.808C286.581,310.577 286.933,309.891 290.281,309.617C294.148,309.3 297.975,310.565 301.732,311.299C306.343,312.2 311.077,313.018 315.773,313.283C317.811,313.398 319.858,313.258 321.893,313.435C322.307,313.473 323.856,314.722 323.851,314.762Z" style="fill:white;"/>
        </g>
        <g transform="matrix(-1,0,0,1,1024.67,0)">
            <path d="M320.71,332.852C314.023,331.253 307.271,329.949 300.495,328.793C295.911,328.012 289.566,328.288 285.336,326.482C280.69,324.5 284.536,321.783 287.724,321.562C291.853,321.276 296.026,322.726 300.066,323.379C305.901,324.323 311.904,325.549 317.804,325.916C321.502,326.147 326.383,325.132 329.865,326.702C331.345,327.37 333.068,328.592 333.135,330.489C333.199,332.289 332.725,331.705 332.183,332.289C328.827,335.908 324.725,333.812 320.71,332.852Z" style="fill:white;"/>
        </g>
        <g transform="matrix(-1,0,0,1,1024.67,0)">
            <path d="M294.579,344.436C289.503,343.25 284.339,342.521 279.213,341.599C280.173,338.869 280.375,335.869 283.578,335.003C286.461,334.224 289.976,336.157 292.651,336.89C300.867,339.142 309.49,339.562 317.713,341.89C314.426,344.38 310.805,346.541 306.638,347.099C302.199,347.696 298.757,345.413 294.579,344.436Z" style="fill:white;"/>
        </g>
        <g transform="matrix(-1,0,0,1,1024.67,0)">
            <path d="M281.163,355.976C276.006,354.554 275.742,348.717 281.476,349.233C285.602,349.605 289.445,351.812 293.353,353.008C293.178,355.01 291.378,353.864 290.35,354.387C290.048,354.542 289.509,354.338 289.156,354.502C288.752,354.691 289.01,355.612 288.786,355.731C286.425,356.991 284.225,356.82 281.163,355.976Z" style="fill:white;"/>
        </g>
        <g transform="matrix(-1,0,0,1,1024.67,0)">
            <path d="M276.891,363.399C275.71,363.876 271.471,357.939 278.496,361.419C278.118,362.192 277.569,362.869 276.891,363.399Z" style="fill:white;"/>
        </g>
        <g transform="matrix(-1,0,0,1,1024.67,0)">
            <path d="M265.655,263.031C269.228,260.493 272.824,257.916 276.136,255.04C278.243,253.21 280.533,249.973 283.511,249.555C281.843,259.839 280.591,270.185 279.571,280.552C278.604,290.367 276.144,299.77 274.564,309.477C272.967,319.287 271.848,328.872 268.729,338.38C268.203,339.984 267.322,341.592 267.169,343.292C267.014,344.996 267.94,346.918 267.394,348.572C266.999,349.769 265.86,350.272 265.277,351.335C264.339,353.046 264.385,355.029 263.759,356.839C264.565,356.478 265.371,356.115 266.176,355.753C267.384,358.018 263.237,358.6 262.164,359.656C260.078,361.706 260.738,364.177 259.938,366.376C258.173,371.226 252.706,361.461 250.891,359.416C238.837,345.82 228.363,331.37 217.241,317.055C214.83,313.949 212.316,310.925 209.701,307.988C208.164,306.263 204.654,303.143 204.588,300.653C204.474,296.396 216.154,291.631 219.904,289.336C234.882,280.167 251.322,273.212 265.655,263.031Z" style="fill:white;"/>
        </g>
        <g transform="matrix(-1,0,0,1,1024.67,0)">
            <path d="M692.237,527.269C687.487,510.037 691.347,491.573 703.907,478.513C706.797,475.509 708.827,472.898 711.115,469.537C712.125,468.054 712.419,468.088 713.459,467.217C714.611,467.606 715.204,467.139 715.237,465.817C716.332,465.323 717.437,464.846 718.547,464.388C720.217,463.681 722.085,463.133 723.67,462.238C724.53,461.655 725.378,461.054 726.213,460.435C727.091,460.89 727.912,460.808 728.678,460.187C729.843,459.584 730.044,458.72 731.307,458.179C732.69,457.587 734,458.723 734.457,456.54C735.997,458.257 736.094,456.687 737.347,456.53C737.569,456.109 737.793,455.688 738.016,455.268C738.541,455.588 739.123,455.804 739.73,455.905C742.095,455.854 744.583,456.055 746.993,456.008C748.02,455.987 749.132,456.115 750.112,456.064C750.758,456.088 751.306,455.888 751.754,455.462C752.204,454.891 752.644,454.974 753.073,455.71C754.858,455.267 755.462,455.819 755.671,453.308C758.139,455.063 758.284,455.917 761.199,456.147C764.117,456.377 766.452,457.028 769.204,458.019C771.95,459.009 782.672,459.341 780.994,463.536C783.113,463.23 784.515,464.658 785.768,466.114C786.614,467.098 785.451,467.401 785.728,467.828C787.111,469.97 789.637,467.719 790.285,466.582C792.204,468.519 790.014,469.132 790.874,471.199C791.319,472.269 793.751,473.204 794.611,473.854C797.111,475.746 796.301,476.37 797.403,479.233C798.393,481.806 799.889,482.462 802.493,482.963C800.932,487.661 808.067,485.985 805.489,491.189C805.038,489.823 804.679,488.57 803.701,487.467C801.72,489.464 803.836,494.474 806.458,491.621C807.722,493.879 805.442,493.979 805.145,495.821C804.999,496.721 806.285,499.753 806.507,500.786C806.959,502.895 807.509,505.051 808.509,506.978C809.62,505.54 809.306,503.916 809.975,502.33C812.783,506.112 808.107,511.53 807.393,515.278C806.371,520.642 805.642,525.632 803.458,530.837C801.41,535.718 798.144,540.764 794.036,544.172C791.407,546.353 785.798,548.08 785.796,552.244C783.526,549.752 781.892,552.995 779.908,554.15C777.64,555.473 774.798,555.852 772.34,556.774C771.741,556.998 769.828,558.228 769.51,558.326C769.582,558.304 767.823,558.371 767.879,558.344C766.1,559.189 765.538,559.932 764.165,561.355C763.116,559.79 762.238,558.474 760.123,559.604C758.428,560.51 759.04,561.602 758.195,563.158C756.285,561.206 756.389,561.106 754.084,560.961C751.088,560.773 747.426,561.784 744.314,561.926C736.245,562.294 728.899,561.468 721.427,558.168C708.424,552.423 696.113,541.332 692.237,527.269Z" style="fill:white;"/>
        </g>
        <g transform="matrix(-1,0,0,1,1024.67,0)">
            <path d="M543.829,157.659C543.298,153.695 550.282,155.471 552.218,155.845C557.347,156.834 562.545,157.138 567.742,157.658C582.526,159.138 597.387,160.985 612.022,163.565C640.788,168.639 669.382,175.769 697.23,184.581C720.385,191.908 743.056,200.902 764.53,212.286C783.294,222.235 802.884,233.157 813.733,252.179C818.863,261.176 822.489,271.81 823.403,282.155C824.308,292.398 821.309,302.466 820.421,312.605C820.268,314.354 820.289,320.342 817.614,320.222C815.208,320.115 813.69,314.317 813.044,312.595C809.16,302.243 807.201,291.338 802.87,281.148C801.156,277.112 795.059,265.688 793.815,276.531C793.307,280.947 794.161,285.737 794.265,290.151C794.408,296.266 794.256,302.383 794.032,308.493C793.92,311.52 795.473,331.401 788.398,329.487C784.984,328.564 784.25,319.301 783.678,316.753C782.388,311.004 781.32,305.208 780.025,299.46C779.255,296.045 771.158,264.065 764.932,272.045C762.068,275.718 762.166,282.711 762.015,287.108C761.828,292.569 762.087,298.049 761.433,303.485C760.088,314.668 756.853,326.144 750.028,335.268C746.626,331.009 747.351,325.413 747.43,320.352C747.523,314.415 746.962,308.481 746.346,302.581C745.058,290.233 741.395,278.273 740.254,265.921C739.4,256.676 740.652,248.259 731.138,243.125C722.294,238.354 710.932,236.902 701.222,234.747C678.649,229.739 656.935,222.131 634.858,215.369C612.142,208.413 589.362,202.233 566.144,197.201C561.332,196.159 556.464,195.411 551.674,194.407C547.612,193.555 547.25,191.641 547.182,187.821C547.002,177.707 545.177,167.694 543.829,157.659Z" style="fill:white;"/>
        </g>
        <g transform="matrix(-1,0,0,1,1024.67,0)">
            <path d="M528.87,125.185C524.442,125.148 520.09,126.56 516.9,129.715L506.903,104.769C516.376,102.598 525.37,98.848 534.586,95.835C543.255,93 552.175,90.859 560.969,88.444C579.636,83.318 598.605,79.473 617.565,75.597C636.376,71.751 655.17,69.737 674.255,67.857C691.225,66.184 708.359,65.411 725.258,68.237C738.35,70.426 753.92,74.067 762.17,85.335C767.661,92.834 771.664,102.238 773.274,111.411C774.14,116.345 777.071,129.393 772.126,133.145C768.954,135.552 765.705,132.086 764.113,129.485C761.088,124.543 759.529,118.835 756.478,113.82C753.512,108.944 750.371,104.152 747.22,99.392C745.443,96.709 742.048,90.236 738.563,89.469C730.38,87.671 740.075,109.673 740.967,112.573C742.593,117.858 751.741,142.933 742.203,145.535C735.538,147.353 729.518,133.257 727.408,129.037C725.828,125.868 724.333,122.658 722.925,119.409C721.03,115.045 718.38,102.827 713.37,100.972C706.618,98.472 710.4,114.624 710.888,117.092C712.1,123.207 713.612,129.278 714.68,135.421C715.417,139.654 716.336,147.312 710.549,148.654C707.434,149.377 704.992,146.715 703.274,144.483C698.449,138.223 696.025,130.204 692.931,123.01C688.551,112.825 683.513,99.774 671.583,96.792C663.713,94.825 655.407,96.861 647.717,98.687C640.53,100.394 633.28,101.777 626.066,103.366C609.446,107.026 592.801,110.519 576.166,114.099C567.671,115.928 559.36,118.463 550.85,120.215C543.702,121.685 536.207,125.243 528.87,125.185Z" style="fill:white;"/>
        </g>
        <g transform="matrix(-1,0,0,1,1024.67,0)">
            <path d="M365.547,148.097C368.659,149.799 371.747,151.544 374.844,153.273C372.979,155.794 370.474,161.837 366.861,161.797C364.911,161.774 361.796,159.435 359.999,158.663C357.21,157.463 354.372,156.436 351.444,155.63C345.731,154.057 339.801,152.903 333.931,152.083C330.586,151.618 328.402,151.868 327.48,148.238C326.59,144.743 326.395,140.872 323.13,145.738C321.351,148.39 320.659,151.719 318.527,154.154C316.921,155.988 313.229,157.9 311.237,155.378C309.795,153.556 311.083,150.609 311.93,148.826C313.074,146.415 314.815,143.716 316.92,142.02C318.62,140.65 323.068,140.552 322.136,137.782C320.427,132.705 308.121,136.077 304.95,132.144C301.33,127.654 304.387,118.21 305.707,113.417C306.377,110.986 306.97,108.184 308.117,105.92C309.579,103.04 310.479,103.539 314.219,103.855C319.561,104.307 324.486,104.682 329.718,103.045C334.026,101.697 335.38,99.027 338.578,96.254C343.526,91.965 349.659,99.078 353.954,101.728C351.996,104.473 345.292,110.092 347.794,113.998C351.942,120.474 358.762,109.777 360.584,106.996C362.49,115.483 361.923,124.172 359.769,132.56C358.999,135.556 357.388,139.093 358.331,142.213C359.397,145.745 362.625,146.499 365.547,148.097ZM330.686,119.327C333.846,117.164 332.706,113.359 330.486,111.002C327.418,107.741 322.848,107.473 318.698,108.217C319.158,111.553 324.671,110.005 325.674,113.045C326.804,116.47 323.092,115.487 321.109,115.418C318.531,115.329 314.306,115.777 317.471,118.692C320.581,121.557 327.31,121.637 330.686,119.327Z" style="fill:white;"/>
        </g>
        <g>
            <path d="M848.91,532.342C844.332,536.656 835.995,542.446 829.405,539.813C826.095,538.491 823.268,535.588 820.253,533.716C816.711,531.516 813.381,529.316 810.378,526.383C804.387,520.531 799.851,511.983 792.775,507.401C790.397,505.861 785.755,505.531 784.105,503.072C783.365,501.969 783.297,500.296 783.433,499.022C783.729,496.275 785.212,496.437 782.733,494.422L786.583,494.422C786.657,492.934 785.173,492.812 784.067,493.003C784.581,490.646 785.105,481.423 780.809,485.603C777.085,489.226 778.948,495.237 776.311,499.161C774.291,502.166 768.934,499.733 768.211,496.427C767.886,494.942 769.521,492.623 769.717,491.167C770.145,487.938 768.703,485.147 766.609,482.701C762.015,485.762 764.619,492.097 762.001,496.119C759.631,499.759 754.356,498.06 750.749,497.42C746.425,496.652 741.536,497.43 737.399,496.408C731.152,494.866 733.485,487.532 732.867,482.798C732.204,477.728 727.079,470.689 728.619,465.573C730.273,460.08 739.942,458.893 744.564,457.56C755.127,454.513 770.194,453.927 778.047,445.397C784.293,452.363 789.317,460.339 795.867,467.045C802.944,474.288 810.502,480.975 817.295,488.51C824.365,496.352 831.663,504.043 838.475,512.112C841.449,515.632 844.059,519.425 847.134,522.862C849.868,525.915 852.75,528.725 848.91,532.342M534.947,396.87C538.193,395.144 538.606,396.226 538.605,399.781C537.671,398.074 536.744,397.617 534.947,396.871M507.427,465.976L507.427,459.71C510.556,459.628 508.632,464.988 507.427,465.976M506.662,475.308C506.662,472.533 506.587,469.891 507.387,467.192C507.807,470.133 508.609,472.679 506.662,475.308M520.116,665.93C522.99,666.2 527.419,664.22 529.836,666.474C532.319,668.791 532.12,675.535 532.708,678.665C533.68,683.838 534.541,689.028 535.36,694.226C535.897,697.634 536.56,701.096 532.708,702.399C527.014,704.325 518.878,701.576 512.943,701.326C501.219,700.833 489.5,700.147 477.766,699.909C466.393,699.679 454.994,699.861 443.673,701.044C438.559,701.578 433.558,702.522 428.496,703.376C425.828,703.827 418.679,705.712 416.269,703.463C411.735,699.229 419.273,689.344 422.515,686.553C428.532,681.371 437.089,677.635 444.634,675.385C448.666,674.182 455.388,670.805 458.564,674.582C461.001,677.479 460.904,681.346 464.396,683.542C472.486,688.627 467.753,674.038 462.696,672.242C466.092,664.296 472.563,675.515 475.246,678.21C476.202,679.17 479.308,682.331 480.656,680.741C481.666,679.551 479.65,675.287 479.276,674.127C478.708,672.365 477.271,669.685 477.684,667.774C478.432,664.316 483.282,663.374 486.187,663.086C490.692,662.64 495.111,664.068 499.565,664.546C506.395,665.277 513.278,665.288 520.115,665.93M474.884,340.22C465.991,340.927 457.042,339.567 448.17,340.68C439.776,341.734 431.866,344.816 423.953,347.647C435.717,320.057 450.937,294.939 469.488,271.41C478.726,259.691 488.662,248.053 498.644,236.962C503.289,231.802 508.093,226.813 512.889,221.798C517.167,217.324 520.232,209.726 525.366,206.385C529.748,203.533 537.406,205.567 542.262,205.745C547.751,205.945 554.431,206.443 559.784,204.616C563.663,203.292 564.73,199.759 559.874,199.642C554.147,199.503 548.514,200.1 542.712,199.563C527.679,198.174 513.188,195.891 498.032,197.186C494.561,197.482 489.991,198.961 486.584,198.517C484.134,198.197 485.744,199.428 484.042,197.462C483.39,196.71 482.604,194.942 482.411,193.943C481.326,188.333 484.407,180.314 485.144,174.665C485.826,169.437 485.222,163.691 486.498,158.6C487.66,153.967 491.202,153.35 495.564,152.854C507.497,151.499 519.674,150.778 531.662,149.757C559.018,147.427 587.242,143.912 614.412,149.67C624.224,151.75 636.187,154.964 644.951,160.112C647.691,161.722 650.457,163.616 649.46,166.95C648.426,170.411 643.356,174.067 640.845,176.347C622.285,193.195 604.361,210.38 591.324,231.998C574.698,259.565 565.157,289.338 559.559,320.928C558.355,327.723 557.237,331.28 550.245,333.236C542.739,335.337 535.494,336.702 527.711,337.341C510.117,338.786 492.469,338.816 474.884,340.219M480.843,157.659C479.495,167.694 477.67,177.707 477.49,187.821C477.422,191.641 477.06,193.555 472.998,194.407C468.208,195.411 463.34,196.159 458.528,197.201C435.31,202.233 412.53,208.413 389.814,215.369C367.737,222.131 346.023,229.739 323.45,234.747C313.74,236.902 302.378,238.354 293.534,243.125C284.02,248.259 285.272,256.676 284.418,265.921C283.277,278.273 279.614,290.233 278.326,302.581C277.71,308.481 277.149,314.415 277.242,320.352C277.321,325.413 278.046,331.009 274.644,335.268C267.819,326.144 264.584,314.668 263.239,303.485C262.585,298.049 262.844,292.569 262.657,287.108C262.506,282.711 262.604,275.718 259.74,272.045C253.514,264.065 245.417,296.045 244.647,299.46C243.352,305.208 242.284,311.004 240.994,316.753C240.422,319.301 239.688,328.564 236.274,329.487C229.199,331.401 230.752,311.52 230.64,308.493C230.416,302.383 230.264,296.266 230.407,290.151C230.511,285.737 231.365,280.947 230.857,276.531C229.613,265.688 223.516,277.112 221.802,281.148C217.471,291.338 215.512,302.243 211.628,312.595C210.982,314.317 209.464,320.115 207.058,320.222C204.383,320.342 204.404,314.354 204.251,312.605C203.363,302.466 200.364,292.398 201.269,282.155C202.183,271.81 205.809,261.176 210.939,252.179C221.788,233.157 241.378,222.235 260.142,212.286C281.616,200.902 304.287,191.908 327.442,184.581C355.29,175.769 383.884,168.639 412.65,163.565C427.285,160.985 442.146,159.138 456.93,157.658C462.127,157.138 467.325,156.834 472.454,155.845C474.39,155.471 481.374,153.695 480.843,157.659M495.802,125.184C488.465,125.242 480.97,121.685 473.822,120.215C465.312,118.463 457.001,115.928 448.506,114.099C431.871,110.519 415.226,107.026 398.606,103.366C391.392,101.777 384.142,100.394 376.955,98.687C369.265,96.861 360.959,94.825 353.089,96.792C341.159,99.774 336.121,112.825 331.741,123.01C328.647,130.204 326.223,138.223 321.398,144.483C319.68,146.715 317.238,149.377 314.123,148.654C308.336,147.312 309.255,139.654 309.992,135.421C311.06,129.278 312.572,123.207 313.784,117.092C314.272,114.624 318.054,98.472 311.302,100.972C306.292,102.827 303.642,115.045 301.747,119.409C300.339,122.658 298.844,125.868 297.264,129.037C295.154,133.257 289.134,147.353 282.469,145.535C272.931,142.933 282.079,117.858 283.705,112.573C284.597,109.673 294.292,87.671 286.109,89.469C282.624,90.236 279.229,96.709 277.452,99.392C274.301,104.152 271.16,108.944 268.194,113.82C265.143,118.835 263.584,124.543 260.559,129.485C258.967,132.086 255.718,135.552 252.546,133.145C247.601,129.393 250.532,116.345 251.398,111.411C253.008,102.238 257.011,92.834 262.502,85.335C270.752,74.067 286.322,70.426 299.414,68.237C316.313,65.411 333.447,66.184 350.417,67.857C369.502,69.737 388.296,71.751 407.107,75.597C426.067,79.473 445.036,83.318 463.703,88.444C472.497,90.859 481.417,93 490.086,95.835C499.302,98.848 508.296,102.598 517.769,104.769L507.772,129.715C504.582,126.56 500.23,125.148 495.802,125.185M659.125,148.097C662.047,146.499 665.275,145.745 666.341,142.213C667.284,139.093 665.673,135.556 664.903,132.56C662.749,124.172 662.182,115.483 664.088,106.996C665.91,109.777 672.73,120.474 676.878,113.998C679.38,110.092 672.676,104.473 670.718,101.728C675.013,99.078 681.146,91.965 686.094,96.254C689.292,99.027 690.646,101.697 694.954,103.045C700.186,104.682 705.111,104.307 710.453,103.855C714.193,103.539 715.093,103.04 716.555,105.92C717.702,108.184 718.295,110.986 718.965,113.417C720.285,118.21 723.342,127.654 719.722,132.144C716.551,136.077 704.245,132.705 702.536,137.782C701.604,140.552 706.052,140.65 707.752,142.02C709.857,143.716 711.598,146.415 712.742,148.826C713.589,150.609 714.877,153.556 713.435,155.378C711.443,157.9 707.751,155.988 706.145,154.154C704.013,151.719 703.321,148.39 701.542,145.738C698.277,140.872 698.082,144.743 697.192,148.238C696.27,151.868 694.086,151.618 690.741,152.083C684.871,152.903 678.941,154.057 673.228,155.63C670.3,156.436 667.462,157.463 664.673,158.663C662.876,159.435 659.761,161.774 657.811,161.797C654.198,161.837 651.693,155.794 649.828,153.273C652.925,151.544 656.013,149.799 659.125,148.097M853.154,518.12C844.13,507.288 836.314,495.52 827.412,484.593C818.631,473.816 808.472,464.393 798.617,454.633C793.966,450.025 789.51,444.971 784.376,440.889C780.546,437.843 777.599,437.796 772.992,439.145C759.902,442.979 746.572,447.595 734.185,453.315C722.65,458.643 712.143,465.485 699.633,468.455C686.863,471.488 673.587,472.462 660.5,471.71C647.076,470.94 634.415,468.146 621.649,464.041C609.559,460.153 596.953,456.758 586.613,449.052C575.773,440.974 567.398,429.355 559.638,418.427C555.708,412.895 551.808,407.085 549.162,400.815C546.865,395.375 545.364,388.952 541.242,384.517C540.231,385.95 538.972,387.179 538.459,388.862C538.225,389.627 539.603,389.603 539.462,390.212C539.195,391.356 537.671,392.524 536.785,393.147C533.602,395.387 533.583,393.604 534.418,397.793C534.904,400.235 533.984,405.744 530.002,403.944C531.468,405.699 529.139,407.914 528.378,409.36C527.855,408.76 527.204,408.55 526.426,408.731C527.882,411.631 527.022,411.708 525.611,414.011C525.353,414.432 524.44,416.635 524.571,416.449C523.129,418.503 521.463,419.02 520.621,421.579C519.931,423.679 520.108,425.989 519.338,428.087L516.545,424.227C516.735,425.239 517.115,426.737 517.557,427.655C517.835,428.229 519.027,429.569 519.011,429.882C518.946,431.052 517.486,430.772 517.07,431.78C516.289,433.673 517.418,433.952 516.992,435.8C516.504,437.92 515.194,437.071 514.571,438.878C514.453,439.221 515.373,440.571 515.227,441.311C515.022,442.357 514.074,442.942 513.739,443.872C512.887,446.238 513.197,447.97 512.014,450.239C511.556,451.119 510.889,451.705 510.566,452.705C510.283,453.585 510.892,455.458 510.346,456.246C507.708,460.046 508.079,453.501 508.279,451.878C509.958,438.251 515.345,424.188 520.275,411.45C522.725,405.122 525.11,398.596 528.181,392.535C529.417,390.095 530.844,387.575 532.887,385.708C535.471,383.346 539.137,382.401 541.477,379.763C541.107,380.179 544.014,377.429 543.549,378.333C543.965,377.525 543.239,376.431 543.497,375.649C543.817,374.679 544.425,374.474 545.101,373.624C546.316,372.098 547.759,371.338 545.851,369.394C548.683,368.768 550.037,367.849 550.603,364.816C551.016,362.597 550.182,362.742 551.638,361.263C553.098,359.777 553.838,360.937 554.76,358.364C555.86,355.285 556.592,351.098 557.252,347.876C557.828,345.063 556.43,340.926 558.801,338.94C561.804,336.425 564.491,337.49 563.953,332.432C563.428,327.502 564.96,324.514 566.5,319.848C569.573,310.533 570.76,300.698 573.455,291.272C579.205,271.156 589.365,253.019 600.289,235.312C610.383,218.95 624.495,205.01 638.122,191.585C641.852,187.908 645.542,184.178 648.892,180.147C651.779,176.677 653.097,171.95 655.871,168.655C657.556,166.655 660.693,165.798 663.046,164.737C666.97,162.967 671.646,160.658 676.075,161.017C674.315,166.949 673.741,173.882 678.935,178.331C685.235,183.728 690.947,178.121 696.723,175.044C707.251,169.435 722.308,174.584 731.488,166.177C733.675,164.175 734.285,160.977 736.557,159.107C738.225,157.735 740.597,157.387 742.476,156.365C748.181,153.26 750.95,147.576 748.729,141.297C746.699,135.557 743.544,133.567 750.566,130.657C756.266,128.297 758.433,124.741 755.853,118.41C753.393,112.374 748.887,111.68 744.623,107.73C740.493,103.903 745.237,99.45 748.331,96.578C752.321,92.873 753.084,89.534 748.458,85.681C743.614,81.647 736.698,81.788 731.052,83.783C724.666,86.038 720.459,89.787 717.757,95.863C715.005,102.047 708.184,100.321 702.66,98.597C697.377,96.949 696.002,93.393 692.533,89.564C688.675,85.305 680.812,88.947 676.262,90.894C665.054,95.684 653.916,103.244 653.471,116.634C653.206,124.619 656.583,131.406 658.339,138.901C659.945,145.755 648.934,145.215 647.027,151.845C626.686,141.077 604.033,137.782 581.295,137.049C557.128,136.269 532.613,135.644 508.652,139.456C514.214,129.766 517.151,119.14 521.99,109.186C523.383,106.319 523.983,106.564 527.057,107.43C532.962,109.093 538.823,110.954 544.716,112.667C566.244,118.925 587.349,126.465 608.165,134.723C610.188,135.526 614.705,137.755 616.478,135.331C618.524,132.536 613.791,129.091 611.875,127.684C603.493,121.535 593.105,117.804 583.719,113.489C563.196,104.06 540.469,99.584 519.056,92.581C472.826,77.46 425,65.975 376.959,58.39C365.235,56.54 353.386,56.268 341.611,54.894C331.209,53.68 320.7,53.702 310.303,54.962C291.041,57.285 268.71,62.297 257.831,79.929C248.01,95.849 241.454,113.749 243.96,132.632C244.713,138.304 247.115,145.022 254.114,143.559C258.969,142.545 261.547,138.42 263.801,134.394C267.207,128.312 270.571,122.23 274.261,116.311C275.631,125.186 270.656,133.913 271.438,142.954C271.97,149.089 275.36,158.782 283.325,157.045C294.242,154.665 298.735,137.61 303.984,129.428C304.25,135.73 302.041,141.941 302.717,148.258C303.384,154.496 308.259,160.386 315.106,159.531C321.564,158.725 325.761,151.806 328.504,146.597C332.321,139.348 335.063,131.577 338.791,124.279C342.285,117.439 346.424,109.296 354.766,108.011C362.211,106.863 370.743,109.521 378.096,110.616C398.496,113.656 418.484,118.832 438.66,123.014C460.293,127.497 482.437,130.22 503.403,137.454C496.031,147.488 476.739,145.32 465.757,146.397C449.161,148.025 432.352,149.25 415.85,151.652C399.552,154.024 383.595,158.235 367.424,161.292C351.338,164.333 335.28,167.379 319.714,172.565C290.816,182.195 261.434,194.38 235.973,211.181C224.126,218.999 213.602,227.934 206.283,240.274C198.919,252.691 195.38,266.732 194.03,281.015C193.19,289.909 194.617,297.606 196.34,306.262C197.588,312.529 197.992,323.022 203.017,327.612C212.607,336.37 220.571,300.842 222.342,296.552C223.617,303.583 221.532,343.199 236.921,339.977C243.789,338.54 245.347,329.113 246.486,323.435C248.564,313.085 250.425,302.525 253.979,292.556C256.259,305.988 257.211,319.982 262.125,332.811C265.389,341.331 274.702,356.449 281.195,341.863C286.065,330.924 284.394,318.369 284.978,306.755C285.625,293.885 289.32,281.471 290.628,268.727C291.135,263.79 290.676,258.227 295.637,255.532C299.896,253.22 306.124,252.467 310.774,251.176C324.547,247.352 338.41,243.837 352.118,239.78C365.832,235.72 379.356,230.977 392.887,226.348C405.827,221.921 419.041,219.404 432.139,215.613C439.586,213.457 446.943,211.203 454.494,209.403C458.008,208.565 461.564,207.913 465.071,207.046C467.67,206.404 471.094,203.981 473.766,204.024C476.516,204.069 477.55,206.397 480.703,206.58C484.098,206.776 487.55,206.027 490.926,205.768C499.151,205.138 507.894,204.118 516.1,205.258C511.168,211.108 504.507,215.151 498.669,219.998C491.936,225.586 485.419,231.621 479.669,238.221C468.097,251.501 457.159,265.538 446.999,279.925C436.976,294.118 428.906,309.649 421.889,325.517C418.394,333.424 414.999,341.504 412.585,349.815C411.593,353.229 410.783,356.656 408.992,359.761C407.349,362.609 405.034,365.064 406.976,368.503C408.313,367.666 409.514,366.626 410.723,365.621C409.326,375.462 406.311,384.982 404.761,394.793C403.233,404.459 403.295,414.4 403.394,424.163C403.602,444.606 405.122,464.587 409.269,484.64C413.463,504.917 418.851,525.04 425.645,544.601C432.185,563.435 438.748,583.186 447.877,600.937C457.627,619.897 469.226,639.831 483.339,655.88C474.119,659.656 462.388,658.95 452.626,660.471C442.422,662.061 433.595,665.062 424.899,670.708C416.101,676.422 411.325,683.778 410.109,694.196C409.245,701.611 406.678,711.877 416.406,713.826C423.403,715.226 431.225,712.926 438.236,712.356C450.5,711.362 462.782,710.741 475.073,710.206C487.331,709.666 499.593,709.204 511.857,708.819C517.625,708.64 523.396,708.55 529.162,708.343C531.746,708.251 533.312,708.211 535.63,708.958C537.462,709.549 537.328,710.776 539.368,709.259C542.658,706.812 541.981,699.097 541.888,695.705C541.748,690.47 541.253,685.175 540.232,680.039C539.626,676.987 532.27,657.314 537.99,656.486C531.345,649.184 528.69,638.757 525.706,629.606C521.966,618.139 518.683,606.706 516.106,594.912C510.601,569.722 508.168,544.255 508.168,518.48C533.686,534.21 560.685,542.73 590.741,543.68C620.623,544.624 653.451,542.17 681.827,532.23C694.967,527.625 706.737,521.58 718.003,513.434C722.041,510.515 726.367,503.904 731.667,504.016C737.992,504.152 745.075,506.546 751.356,507.57C763.368,509.528 779.046,510.633 789.216,518.063C794.74,522.099 798.699,527.748 803.629,532.398C807.379,535.936 812.338,537.858 816.059,541.395C820.076,545.212 818.481,550.199 825.139,550.508C830.832,550.771 837.073,548.481 841.982,545.793C851.776,540.43 862.206,528.983 853.154,518.119"/>
            <path d="M759.017,263.031C773.35,273.212 789.79,280.167 804.768,289.336C808.518,291.631 820.198,296.396 820.084,300.653C820.018,303.143 816.508,306.263 814.971,307.988C812.356,310.925 809.842,313.949 807.431,317.055C796.309,331.37 785.835,345.82 773.781,359.416C771.966,361.461 766.499,371.226 764.734,366.376C763.934,364.177 764.594,361.706 762.508,359.656C761.435,358.6 757.288,358.018 758.496,355.753C759.301,356.115 760.107,356.478 760.913,356.839C760.287,355.029 760.333,353.046 759.395,351.335C758.812,350.272 757.673,349.769 757.278,348.572C756.732,346.918 757.658,344.996 757.503,343.292C757.35,341.592 756.469,339.984 755.943,338.38C752.824,328.872 751.705,319.287 750.108,309.477C748.528,299.77 746.068,290.367 745.101,280.552C744.081,270.185 742.829,259.839 741.161,249.555C744.139,249.973 746.429,253.21 748.536,255.04C751.848,257.916 755.444,260.493 759.017,263.031M747.781,363.398C747.103,362.868 746.554,362.192 746.176,361.419C753.201,357.939 748.962,363.876 747.781,363.399M743.509,355.976C740.447,356.82 738.247,356.991 735.886,355.731C735.662,355.612 735.92,354.691 735.516,354.502C735.163,354.338 734.624,354.542 734.322,354.387C733.294,353.864 731.494,355.01 731.319,353.008C735.227,351.812 739.07,349.605 743.196,349.233C748.93,348.717 748.666,354.554 743.509,355.976M730.093,344.436C725.915,345.413 722.473,347.696 718.034,347.099C713.867,346.541 710.246,344.38 706.959,341.89C715.182,339.562 723.805,339.142 732.021,336.89C734.696,336.157 738.211,334.224 741.094,335.003C744.297,335.869 744.499,338.869 745.459,341.599C740.333,342.521 735.169,343.25 730.093,344.436M703.963,332.852C699.948,333.812 695.845,335.908 692.489,332.289C691.947,331.705 691.473,332.289 691.537,330.489C691.604,328.592 693.327,327.37 694.807,326.702C698.289,325.132 703.17,326.147 706.868,325.916C712.768,325.549 718.771,324.323 724.606,323.379C728.646,322.726 732.819,321.276 736.948,321.562C740.136,321.783 743.982,324.5 739.336,326.482C735.106,328.288 728.761,328.012 724.177,328.793C717.401,329.949 710.649,331.254 703.962,332.853M700.042,313.968L700.822,314.763C700.778,314.753 702.36,313.473 702.779,313.435C704.814,313.258 706.861,313.398 708.899,313.283C713.595,313.018 718.329,312.2 722.94,311.299C726.697,310.565 730.524,309.3 734.391,309.617C737.739,309.891 738.091,310.577 738.311,313.808C729.764,313.808 720.961,313.628 712.562,315.438C707.094,316.614 701.068,320.12 698.329,313.8L700.041,313.968M705.384,300.289C707.504,301.903 713.28,299.219 715.82,298.951C718.578,298.659 721.173,298.356 723.846,297.669C726.216,297.059 734.057,294.013 735.876,296.926C738.662,301.389 727.377,302.208 725.588,302.429C718.085,303.356 710.3,304.179 702.999,306.146L705.384,300.289M715.676,285.13C716.224,287.193 733.192,279.591 733.501,285.116C733.739,289.356 716.713,291.467 713.652,291.096C714.369,289.143 716.276,287.396 715.676,285.13M721.373,272.163C721.734,268.003 722.293,268.026 725.629,267.634C728.174,267.335 731.672,265.844 731.01,270.379C730.443,274.263 721.01,276.362 721.373,272.163M727.438,257.846C728.241,255.612 730.048,258.619 730.086,259.756C730.187,262.778 727.896,262.124 725.689,262.124C726.303,260.712 726.887,259.284 727.439,257.846M755.365,241.077C754.915,240.535 752.389,240.328 751.67,240.065C749.902,239.417 750.153,238.036 747.891,239.398C747.778,239.284 747.993,238.26 747.871,238.213C747.808,238.189 746.223,237.591 745.708,237.261C744.465,236.465 743.345,235.686 742.203,234.687C740.989,233.627 739.773,232.087 738.386,231.241C737.801,230.885 737.323,230.381 736.618,230.271C734.789,229.989 735.313,231.263 733.714,231.516C732.729,231.672 732.012,230.522 730.724,231.018C729.611,231.446 728.965,233.008 728.469,233.936C726.666,237.317 725.275,240.956 723.51,244.373C714.484,261.846 704.225,278.656 695.482,296.293C691.272,304.788 686.877,313.343 683.913,322.373C681.776,328.884 676.95,338.397 681.103,344.904C684.121,349.635 690.166,351.678 694.989,353.964C702.246,357.404 708.936,361.9 716.273,365.235C724.975,369.196 733.569,373.39 742.046,377.813C745.683,379.707 748.966,382.435 752.59,384.229C754.807,385.326 758.231,383.454 758.953,385.969C761.733,382.603 766.23,384.847 769.445,382.477C771.336,381.083 772.718,378.337 774.295,376.62C776.661,374.046 779.229,371.658 781.643,369.13C791.224,359.084 800.071,348.622 808.788,337.833C817.114,327.53 826.841,317.796 833.874,306.518C836.667,302.041 837.174,297.346 835.33,292.4C833.984,288.792 830.742,283.344 826.111,285.733C827.867,282.817 821.093,279.703 819.038,279.133C819.008,279.125 818.602,281.365 818.029,281.309C818.233,281.329 816.307,276.346 815.461,275.707C812.949,273.807 809.893,271.588 807.152,270.023C804.638,268.588 801.985,267.877 799.55,266.271C796.598,264.325 793.888,262.017 790.925,260.084C788.065,258.218 784.875,256.012 781.713,254.729C778.971,253.616 776.509,253.399 774.043,251.574C770.99,249.317 768.328,247.786 764.808,246.231C761.763,244.886 757.543,243.711 755.365,241.077M339.709,511.32L341.387,507.376C342.079,509.668 342.273,510.808 339.709,511.32M340.454,517.394C339.241,517.611 339.719,513.806 339.719,513.143C341.814,514.329 340.079,515.751 340.454,517.394M338.563,506.417L341.665,504.585C340.225,507.253 340.79,505.586 341.384,507.368C340.298,507.68 339.242,507.316 338.563,506.417M332.435,527.269C328.559,541.332 316.248,552.423 303.245,558.168C295.773,561.468 288.427,562.294 280.358,561.926C277.246,561.784 273.584,560.773 270.588,560.961C268.283,561.106 268.387,561.206 266.477,563.158C265.632,561.602 266.244,560.51 264.549,559.604C262.434,558.474 261.556,559.79 260.507,561.355C259.134,559.932 258.572,559.189 256.793,558.344C256.849,558.371 255.09,558.304 255.162,558.326C254.844,558.228 252.931,556.998 252.332,556.774C249.874,555.852 247.032,555.473 244.764,554.15C242.78,552.995 241.146,549.752 238.876,552.244C238.874,548.08 233.265,546.353 230.636,544.172C226.528,540.764 223.262,535.718 221.214,530.837C219.03,525.632 218.301,520.642 217.279,515.278C216.565,511.53 211.889,506.112 214.697,502.33C215.366,503.916 215.052,505.54 216.163,506.978C217.163,505.051 217.713,502.895 218.165,500.786C218.387,499.753 219.673,496.721 219.527,495.821C219.23,493.979 216.95,493.879 218.214,491.621C220.836,494.474 222.952,489.464 220.971,487.467C219.993,488.57 219.634,489.823 219.183,491.189C216.605,485.985 223.74,487.661 222.179,482.963C224.783,482.462 226.279,481.806 227.269,479.233C228.371,476.37 227.561,475.746 230.061,473.854C230.921,473.204 233.353,472.269 233.798,471.199C234.658,469.132 232.468,468.519 234.387,466.582C235.035,467.719 237.561,469.97 238.944,467.828C239.221,467.401 238.058,467.098 238.904,466.114C240.157,464.658 241.559,463.23 243.678,463.536C242,459.341 252.722,459.009 255.468,458.019C258.22,457.028 260.555,456.377 263.473,456.147C266.388,455.917 266.533,455.063 269.001,453.308C269.21,455.819 269.814,455.267 271.599,455.71C272.028,454.974 272.468,454.891 272.918,455.462C273.366,455.888 273.914,456.088 274.56,456.064C275.54,456.115 276.652,455.987 277.679,456.008C280.089,456.055 282.577,455.854 284.942,455.905C285.549,455.804 286.131,455.588 286.656,455.268C286.879,455.688 287.103,456.109 287.325,456.53C288.578,456.687 288.675,458.257 290.215,456.54C290.672,458.723 291.982,457.587 293.365,458.179C294.628,458.72 294.829,459.584 295.994,460.187C296.76,460.808 297.581,460.89 298.459,460.435C299.294,461.054 300.142,461.655 301.002,462.238C302.587,463.133 304.455,463.681 306.125,464.388C307.235,464.846 308.34,465.323 309.435,465.817C309.468,467.139 310.061,467.606 311.213,467.217C312.253,468.088 312.547,468.054 313.557,469.537C315.845,472.898 317.875,475.509 320.765,478.513C333.325,491.573 337.185,510.037 332.435,527.269M336.29,471.735C330.619,464.141 322.592,455.445 315.379,450.649C311.723,448.217 306.591,443.852 302.119,442.566C301.059,442.261 299.963,442.241 298.921,441.921C298.116,441.674 297.678,440.848 296.76,440.699C296.118,440.595 296.047,442.032 295.365,441.9C293.939,441.622 293.035,440.207 292.028,439.322C289.865,443.049 288.691,436.781 285.515,440.995C281.735,435.068 272.855,436.364 266.819,436.663C265.029,436.751 264.188,437.388 262.601,437.86C261.124,438.299 260.978,438.186 259.365,438.174C255.348,438.143 251.782,438.648 248.069,440.412C241.831,443.375 236.105,447.992 230.179,451.563C223.558,455.554 217.589,460.634 212.523,466.471C194.209,487.577 189.312,518.384 203.915,542.852C227.11,581.713 286.941,585.866 320.844,559.498C347.037,539.125 357.004,499.469 336.29,471.735M623.379,362.378C622.727,363.931 616.649,363.408 616.515,361.577C616.318,358.841 624.51,359.679 623.379,362.377M629.836,361.362C633.281,361.642 638.94,363.982 642.26,362.568C647.327,360.41 642.006,357.098 639.289,356.108C636.523,355.101 632.402,355.636 630.981,352.744C629.911,350.569 632.554,344.497 629.274,345.473C625.832,346.497 626.834,355.195 621.433,352.263C618.856,350.863 619.908,342.342 615.593,346.696C614.411,347.886 614.309,350.074 612.745,350.962C611.149,351.869 609.147,350.924 607.461,351.002C603.001,351.212 601.58,355.385 606.1,357.04C607.773,357.653 614.079,358.4 610.259,361.135C607.851,362.857 602.504,359.243 600.437,362.241C597.597,366.359 605.207,366.451 607.25,367.684C610.715,369.77 607.853,374.643 608.13,378.113C608.553,383.415 611.632,382.307 612.752,377.82C613.7,374.013 612.525,368.533 618.264,370.046C627.61,372.51 613.067,384.375 619.913,387.411C624.277,389.347 624.896,378.881 625.235,377.08C626.49,370.429 630.225,371.98 635.885,372.185C642.497,372.423 644.093,367.532 637.092,366.131C634.858,365.684 631.784,366.249 629.844,364.826C628.696,363.985 627.118,361.142 629.835,361.362M385.71,578.656C380.36,576.74 371.408,577.154 370.084,584.065C369.53,586.958 370.609,590.018 372.607,592.12C374.924,594.557 378.614,594.783 378.417,590.539C378.28,587.602 375.485,585.051 380.399,584.459C383.457,584.091 387.979,586.378 388.132,589.756C388.476,597.37 375.296,597.966 370.439,596.65C360.799,594.038 363.418,583.94 370.038,579.333C371.748,578.142 376.655,576.308 376.878,573.835C377.177,570.555 373.121,571.225 371.133,571.657C356.52,574.837 353.335,599.317 368.603,603.933C375.538,606.028 385.303,603.865 389.482,597.585C393.4,591.697 393.452,581.428 385.711,578.655M191.957,405.36L178.254,411.957C176.744,408.726 174.193,399.899 170.363,398.772C164.163,396.947 168.111,406.569 169.181,408.769C170.06,410.576 172.099,413.376 171.604,415.53C170.94,418.432 166.846,419.46 164.703,420.957C159.4,424.663 159.442,432.446 167.122,429.148C171.468,427.281 176.849,422.104 180.18,427.982C181.718,430.694 185.362,445.846 189.168,435.937C191.523,429.802 180.188,423.428 185.776,418.238C187.575,416.568 189.681,416.427 191.478,415.467C195.818,413.148 193.371,408.863 191.957,405.36M861.643,185.82C858.92,184.824 855.551,182.88 852.524,183.542C849.307,184.246 848.012,187.468 845.674,189.405C839.314,194.672 835.61,186.822 832.116,182.52C828.816,178.458 824.79,177.472 820.134,179.968C818.279,180.963 810.464,185.522 811.827,188.443C812.807,190.545 816.668,188.658 817.985,188.199C820.845,187.204 823.499,186.333 826.423,187.784C831.908,190.504 833.331,197.964 839.967,199.126C846.829,200.329 847.054,193.799 851.951,191.341C855.234,189.694 857.521,192.611 860.688,192.029C863.706,191.476 865.102,187.084 861.643,185.82M806.244,212.137C808.671,212.664 810.254,207.957 811.774,206.763C814.294,204.784 818.663,204.385 821.229,206.377C826.239,210.265 824.513,218.659 831.648,220.847C838.025,222.803 841.028,214.404 846.397,212.313C849.517,211.097 852.944,210.301 851.726,205.938C850.885,202.921 848.406,202.146 845.713,203.305C841.083,205.295 839.511,213.402 834.022,213.547C828.342,213.697 827.727,205.51 825.289,201.944C821.572,196.509 813.931,195.196 809.589,200.394C808.278,201.961 801.622,211.136 806.244,212.137M693.987,119.327C697.363,121.637 704.091,121.557 707.201,118.692C710.366,115.777 706.141,115.329 703.563,115.418C701.58,115.487 697.868,116.47 698.998,113.045C700.001,110.005 705.514,111.553 705.974,108.217C701.824,107.473 697.254,107.741 694.186,111.002C691.966,113.359 690.826,117.164 693.986,119.327"/>
        </g>
    </g>
</svg>
