<?xml version="1.0" encoding="UTF-8" standalone="no"?>
<!DOCTYPE svg PUBLIC "-//W3C//DTD SVG 1.1//EN" "http://www.w3.org/Graphics/SVG/1.1/DTD/svg11.dtd">
<svg width="100%" height="100%" viewBox="0 0 1024 768" version="1.1" xmlns="http://www.w3.org/2000/svg" xmlns:xlink="http://www.w3.org/1999/xlink" xml:space="preserve" xmlns:serif="http://www.serif.com/" style="fill-rule:evenodd;clip-rule:evenodd;stroke-linejoin:round;stroke-miterlimit:2;">
    <g>
        <path d="M738.321,566.027C733.804,571.251 727.134,575.128 722.016,579.904C716.642,584.921 710.809,589.305 705.456,594.261C681.842,565.401 649.494,547.703 621.471,523.754C608.186,512.399 598.398,496.998 591.235,481.192C587.563,473.089 584.85,464.749 582.727,456.117C581.771,452.229 580.837,448.354 580.211,444.413C579.454,439.64 579.258,439.233 576.038,435.508C574.652,433.905 571.968,429.221 569.252,429.738C566.967,430.172 562.788,437.128 561.344,438.845C554.4,447.108 547.668,455.622 540.357,463.565C529.172,475.719 518.989,487.679 508.604,500.561C487.36,526.916 464.444,551.725 441.32,576.524C439.605,578.364 435.606,583.756 433.142,584.481C430.146,585.362 425.277,581.687 422.26,579.633C414.977,574.675 409.237,568.538 403.011,562.393C390.862,550.401 382.635,533.568 377.101,517.553C373.788,507.965 371.634,498.027 368.215,488.473C366.79,484.491 363.56,479.597 365.2,476.129C365.688,475.095 368.796,472.349 369.892,472.139C371.188,471.889 373.349,473.666 373.799,473.543C378.099,472.366 375.713,467.865 378.271,465.443C379.721,464.069 387.096,464.27 389.298,463.515C397.349,460.753 404.572,455.485 412.183,452.34C444.046,439.176 476.297,426.371 503.804,404.874C510.938,399.3 515.678,395.111 524.19,391.508C532.792,387.868 541.44,384.619 550.216,381.442C557.96,378.639 565.746,376.012 573.746,374.002C582.396,371.829 594.667,369.074 603.31,371.873C620.283,377.368 625.764,391.353 632.523,406.106C641.668,426.066 652.725,444.954 664.713,463.326C687.773,498.674 715.818,530.393 738.321,566.027" style="fill:rgb(0,173,181);"/>
        <path d="M872.935,653.767C871.502,653.861 870.066,653.958 868.63,654.055C846.795,655.679 823.358,654.642 801.466,653.142C782.12,651.814 763.231,653.307 744.001,654.764C740.315,655.044 731.737,656.141 728.775,654.632C725.522,652.973 723.771,647.02 722.96,643.06C720.937,633.179 719.115,623.68 715.386,614.176C713.93,610.465 710.986,606.957 712.085,603.29C712.956,600.384 719.063,596.29 721.609,594.412C728.968,588.984 736.275,583.81 742.495,576.98C747.103,582.612 748.05,591.512 752.305,597.766C756.127,603.383 761.068,607.705 766.63,611.549C775.793,617.881 784.905,620.682 795.04,624.279C807.513,628.708 820.097,633.004 833.044,636.599C846.843,640.432 859.709,648.179 872.935,653.767ZM731.645,612.767C730.122,609.959 725.562,601.988 724.642,610.054C724.136,614.499 731.271,619.411 731.645,612.767Z" style="fill:white;"/>
        <path d="M804.398,373.281L804.397,373.278C804.363,372.896 804.328,372.514 804.293,372.132C802.265,349.943 799.924,327.958 799.347,305.711C799.03,293.527 798.938,281.637 799.89,269.524C800.822,257.668 799.853,244.905 802.479,233.285C805.643,254.19 809.391,275.003 813.716,295.699C818.243,317.358 825.52,338.366 829.81,360.066C834.014,381.322 837.379,403.02 842.347,424.09C846.723,442.645 848.6,461.211 851.051,480.075C836.146,480.075 821.472,482.345 806.701,483.765C809.968,468.812 792.159,459.054 782.71,449.928C771.363,438.97 760.176,430.458 750.855,417.523C731.844,391.137 717.952,363.717 709.78,332.203C710.827,331.739 737.173,364.867 740.457,368.309C751.388,379.764 763.268,390.435 773.576,402.465C784.159,414.815 793.361,428.523 801.573,442.533C805.496,449.226 810.251,455.501 813.87,462.363C816.271,466.919 821.038,473.533 821.172,478.743C827.781,473.254 820.928,459.976 818.222,453.498C816.517,449.416 813.564,445.621 812.656,441.326C811.806,437.305 812.497,432.775 812.452,428.696C812.248,410.156 806.933,391.6 804.398,373.281Z" style="fill:white;"/>
        <path d="M930.681,334.494L930.691,333.464C929.966,334.682 929.891,335.911 930.499,337.146C930.277,340.754 930.157,344.401 930.152,348.103C930.118,370.515 928.931,392.493 926.311,414.743C925.068,425.306 923.649,436.141 921.785,446.621C920.119,455.988 915.42,468.133 917.43,477.518C915.41,477.518 913.414,477.665 911.411,477.786C909.957,476.873 908.498,477.496 907.039,477.943C902.487,478.349 897.897,480.224 895.821,476.244C893.601,471.99 895.077,461.732 895.174,456.834C895.408,444.993 899.62,430.867 902.718,419.384C909.07,395.84 912.33,371.883 917.875,348.144C923.2,325.345 928.262,302.439 932.877,279.602C935.269,267.764 939.171,256.088 945.029,245.542C949.663,237.202 954.545,226.294 963.364,221.632C955.324,243.225 945.6,263.36 939.662,285.75C935.308,302.165 931.934,317.941 930.681,334.494Z" style="fill:white;"/>
        <path d="M868.404,265.319C868.404,265.34 868.403,265.36 868.403,265.38C868.259,274.909 867.517,284.429 869.024,293.885C870.428,302.692 872.871,311.312 874.327,320.109C877.257,337.818 877.32,355.85 879.679,373.625C881.555,387.762 882.747,401.934 883.696,416.12C885.084,436.897 885.949,457.707 887.669,478.491C881.479,478.773 875.237,478.287 869.056,478.743C867.724,478.841 866.594,478.939 865.633,479.002C865.79,478.939 865.947,478.87 866.103,478.794L862.202,478.879C860.262,478.326 860.05,476.394 859.72,471.035C858.933,458.249 857.449,445.699 855.087,433.097C852.701,420.371 854.666,409.233 854.901,396.403C855.115,384.742 854.515,373.084 853.733,361.446C851.908,334.294 852.446,307.203 853.487,280.05C853.947,268.047 855.421,255.27 859.693,243.98C861.665,238.768 864.414,233.837 866.469,228.661C868.526,223.48 869.054,217.161 871.319,212.223C874.073,213.279 871.12,233.508 870.942,236.473C870.364,246.117 868.494,255.653 868.404,265.319Z" style="fill:white;"/>
        <path d="M898.405,661.199C900.179,661.609 902.004,661.184 903.807,661.102L897.04,660.693C894.449,660.693 890.421,661.479 887.893,660.693C882.28,658.947 886.864,661.197 884.573,656.893C882.561,653.114 882.266,648.286 880.078,644.624C875.306,636.636 862.509,633.19 854.572,629.141C845.689,624.609 837.043,620.959 827.618,617.599C824.183,616.374 819.448,616.158 817.157,613.432C816.449,612.59 816.638,609.833 815.607,608.53C814.938,607.684 812.417,608.476 812.08,608.136C809.114,605.153 807.804,595.081 806.613,590.769C805.56,586.957 805.124,583.702 804.974,579.709C804.615,570.068 804.943,560.47 804.767,550.85C804.577,540.44 804.992,529.905 805.76,519.517C806.334,511.743 804.652,502.214 806.838,494.724C808.086,490.449 807.723,491.149 812.551,491.416C813.961,491.494 815.328,491.816 816.728,491.951C820.913,492.357 824.99,492.564 829.16,492.531C838.24,492.46 847.462,492.076 856.633,491.972C873.833,491.777 891.154,491.514 908.362,490.39C914.527,489.988 930.207,486.41 933.579,490.845C935.334,493.155 935.445,502.228 935.87,504.895C936.58,509.355 937.194,513.81 937.643,518.305C939.597,537.897 945.059,558.344 942.068,578.07C939.377,595.823 936.874,613.185 930.744,630.156C927.541,639.023 923.121,646.354 917.677,654.009C914.514,658.454 913.98,660.43 908.995,661.157C906.56,661.512 901.55,662.013 898.405,661.199ZM876.872,528.666C877.723,531.948 878.162,539.369 883.063,538.408C886.678,537.699 887.813,531.903 887.843,528.833C887.873,525.6 886.576,518.853 882.036,519.098C877.974,519.318 877.611,525.794 876.872,528.666ZM864.499,530.63C864.1,524.769 858.393,514.8 855.251,525.064C852.246,534.884 860.159,543.783 864.499,530.63ZM843.358,531.281L843.358,531.274C843.337,530.469 843.344,529.312 843.274,528.048C843.082,524.598 842.308,520.354 838.786,520.297C835.453,520.243 834.331,524.406 833.95,526.904C833.513,529.758 833.641,537.421 837.623,538.067C840.871,538.593 842.153,533.597 843.358,531.281ZM929.91,533.806C929.727,528.793 925.768,522.03 923.659,529.663C922.237,534.81 926.68,541.053 929.91,533.806ZM823.401,562.48C832.023,562.935 840.713,563.627 849.339,563.776C867.766,564.093 888.166,561.638 906.137,557.833C909.077,557.21 918.79,558.181 920.819,556.303C925.061,552.376 918.966,551.709 916.318,551.386L920.907,551.356C918.163,550.57 915.422,550.505 912.686,551.158C904.01,551.076 894.568,553.937 885.993,554.212C885.981,554.213 885.969,554.214 885.957,554.214C877.21,554.801 868.484,556.081 859.733,556.519C857.872,555.819 856.012,555.885 854.153,556.669C853.016,556.67 851.876,556.666 850.734,556.66C847.3,555.736 843.859,555.969 840.418,556.603C834.796,556.617 829.175,556.773 823.633,557.409C813.938,558.523 814.785,562.024 823.401,562.48ZM907.481,530.63C907.481,530.628 907.481,530.626 907.48,530.624C907.433,530.129 907.383,529.54 907.316,528.895C906.964,525.534 906.136,520.651 902.763,519.712C898,518.383 896.621,524.749 896.395,528.582C896.209,531.756 897.046,540.437 902.102,539.872C905.712,539.468 906.539,533.312 907.481,530.63ZM825.896,533.818C826.671,532.052 826.734,530.296 825.829,528.548C825.834,528.993 825.84,529.439 825.845,529.884C825.686,526.385 824.966,522.518 821.699,521.239C817.698,519.673 816.241,523.667 815.553,527.149C814.89,530.511 815.38,537.851 818.9,539.671C823.452,542.025 824.426,537.27 825.896,533.818Z" style="fill:white;"/>
        <path d="M60.284,612.035C60.284,612.028 60.285,612.022 60.285,612.015C70.869,580.765 78.402,547.737 90.122,517.085C96.254,501.05 99.72,484.264 104.728,468.075C107.16,460.215 109.119,452.199 112.86,444.803C115.791,439.012 120.438,427.381 126.292,424.383C129.368,466.871 142.131,507.077 153.552,548.039C159.209,568.33 166.07,590.741 176.862,608.802C182.24,617.802 185.414,628.487 191.526,637.017C197.148,644.863 206.675,650.158 214.289,655.798C199.728,657.33 184.73,657.713 169.955,657.93C157.555,658.113 144.737,659.167 132.51,659.427C132.547,659.403 132.585,659.378 132.622,659.353L128.615,659.336C128.684,659.387 128.754,659.435 128.823,659.48C128.36,659.483 127.897,659.485 127.435,659.485C125.006,659.486 122.549,659.503 120.073,659.538C108.82,659.695 97.176,660.213 86.046,661.236C71.719,662.554 57.834,663.782 44.126,668.666C43.75,664.348 47.464,659.18 48.492,654.816C49.564,650.267 51.111,645.769 52.023,641.193C53.971,631.428 59.563,621.967 60.284,612.035ZM195.589,656.56L199.831,656.608C198.429,655.607 197.011,655.935 195.589,656.56ZM135.301,659.22L139.164,659.206C137.874,658.44 136.587,658.366 135.301,659.22Z" style="fill:white;"/>
        <path d="M542.434,623.226L541.932,634.216C539.108,633.889 523.15,633.948 523.148,630.941C523.145,625.927 539.124,624.162 542.434,623.226Z" style="fill:white;"/>
        <path d="M571.865,617.269C572.465,617.259 573.066,617.248 573.666,617.235C573.118,617.244 572.57,617.253 572.024,617.262C575.513,617.122 578.988,616.894 582.426,616.577C588.587,616.007 609.744,610.817 611.95,615.783C613.745,619.827 611.106,630.592 610.25,634.906C609.354,639.433 608.05,645.202 605.299,648.995C600.214,656.008 590.197,658.8 581.628,658.302L579.568,658.115C578.934,658.037 578.313,657.94 577.706,657.824C569.334,656.998 560.483,655.371 555.77,648.475C549.238,638.915 549.806,628.091 549.806,616.985C557.07,617.459 564.497,617.559 571.865,617.269Z" style="fill:white;"/>
        <path d="M500.988,378.746C502.474,378.772 503.958,378.798 505.444,378.826C503.975,377.917 502.484,378.202 500.988,378.746C495.114,377.797 488.999,378.051 483.14,376.938L479.079,376.955C479.328,377.151 479.578,377.296 479.827,377.398C477.396,377.229 474.669,376.337 472.681,376.02C466.76,375.074 467.622,374.696 467.905,368.776C468.196,362.708 470.035,356.889 471.984,351.199C474.546,343.722 478.752,337.271 480.886,329.444C482.906,322.03 485.086,314.761 487.381,307.414C489.924,299.268 493.451,291.583 496.487,283.62C497.627,280.631 498.362,274.286 500.457,271.972C502.501,269.715 506.512,270.21 509.949,271.055C512.105,271.586 513.982,273.105 516.169,273.788C520.139,275.029 524.337,274.757 528.344,275.824C532.56,276.947 536.566,279.559 540.985,280.149C545.227,280.714 548.459,280.757 552.668,281.851C541.686,304.333 533.219,327.705 524.139,350.983C521.917,356.681 518.62,361.564 516.29,367.161C514.965,370.343 513.969,377.176 511.167,379.039C509.332,380.259 503.075,379.083 500.988,378.746Z" style="fill:white;"/>
        <path d="M379.847,455.557L379.127,453.264C379.095,453.319 379.064,453.372 379.034,453.425C379.239,451.791 379.361,450.168 379.488,448.489C379.671,442.803 379.622,437.05 380.073,431.38C380.476,426.306 380.384,425.285 385.012,423.5C395.985,419.27 407.098,415.447 417.835,410.51C427.558,406.04 436.38,401.128 443.207,392.716C449.385,385.105 453.73,375.728 460.64,368.673C461.995,369.423 459.664,381.188 460.701,383.746C461.749,386.331 464.866,389.632 467.642,390.529C472.711,392.165 480.909,390.969 486.202,391.145L504.725,391.761C505.197,395.091 477.075,407.281 473.162,409.397C461.96,415.455 451.193,421.535 439.479,426.567C429.282,430.947 418.44,434.46 408.89,439.792C403.943,442.553 398.879,445.583 393.821,448.33C389.992,450.409 384.479,454.844 379.847,455.557Z" style="fill:white;"/>
        <path d="M169.176,283.672C169.163,283.477 169.151,283.281 169.139,283.086C169.151,283.281 169.163,283.476 169.175,283.67C167.877,281.067 163.875,278.974 161.805,277.129C166.961,273.542 173.995,269.462 180.447,268.957C183.427,268.723 186.022,269.792 188.934,270C190.395,270.104 193.763,269.315 195.049,269.785C199.913,271.559 204.924,279.89 208.181,283.752C212.128,288.432 215.508,293.013 218.175,298.553C224.151,310.964 227.614,324.712 233.022,337.424C238.917,351.28 244.564,365.579 251.517,378.934C258.339,392.035 266.836,404.019 274.208,416.761C277.505,422.46 280.87,427.922 285.364,432.772C289.006,436.702 291.448,440.799 295.647,438.889C295.86,438.185 296.015,437.471 296.113,436.745C296.153,435.411 297.197,435.037 299.245,435.625C301.812,434.376 305.731,434.388 308.598,433.928C316.119,432.718 323.298,430.814 330.743,429.274C344.341,426.461 357.725,423.281 371.419,420.907C369.74,424.322 372.214,430.525 372.012,435.1C371.711,441.909 371.26,448.717 370.868,455.52C370.533,461.351 371.214,462.797 366.647,465.535C361.348,468.713 354.615,470.163 348.992,472.713C336.93,478.181 325.233,484.887 312.87,489.614C301.446,493.983 289.363,495.719 277.706,499.241C268.088,502.148 259.598,504.136 250.661,497.669C240.501,490.316 233.485,477.921 226.608,467.693C218.43,455.529 209.261,444.05 201.125,431.875C194.597,422.106 191.149,407.599 181.566,400.303C178.207,405.986 187.928,420.377 190.379,425.711C194.124,433.863 198.325,441.242 203.396,448.633C214.547,464.883 224.682,482.342 236.878,497.816C247.628,511.455 259.448,518.674 276.801,514.311C291.275,510.672 305.346,506.313 318.995,500.598C325.345,497.939 331.51,495.306 337.652,491.909C340.279,490.457 356.859,478.804 359.062,479.842C362.781,481.593 364.971,501.873 366.071,506.208C368.116,514.257 369.985,522.469 372.775,530.299C383.611,560.705 402.691,582.358 428.632,600.616C441.504,609.676 454.713,618.094 467.966,626.588C480.737,634.773 490.007,644.355 500.101,655.525C496.699,656.933 490.261,654.595 486.456,654.555L490.991,654.602C489.49,653.525 487.973,653.891 486.452,654.555C475.158,653.876 463.286,654.661 452.034,654.741L446.78,654.673C446.858,654.722 446.937,654.768 447.016,654.813C434.62,655.07 421.844,655.904 409.319,656.475C407.605,656.553 405.896,656.626 404.193,656.692C400.74,656.827 397.385,657.063 394.059,657.084C390.237,657.109 386.454,656.851 382.604,655.832C376.403,654.192 370.438,653.906 364.015,653.684C348.423,653.144 332.649,653.059 317.025,653.266C302.863,653.454 288.889,655.31 274.727,655.39C263.164,655.455 251.662,652.608 240.742,649.29C229.022,645.729 218.854,643.769 208.545,636.72C203.686,633.4 200.656,629.059 200.537,623.15C200.415,617.16 202.376,617.882 197.154,614.982C194.757,613.651 195.083,614.783 193.035,612.446C192.162,611.449 191.473,609.819 190.888,608.636C189.731,606.3 188.661,603.921 187.517,601.578C185.033,596.488 182.931,591.418 180.476,586.278C177.96,581.008 176.968,575.613 175.471,570.108C173.889,564.299 169.889,558.08 170.389,552.131C172.526,555.273 173.935,557.341 178.082,556.601C181.262,556.032 184.136,553.544 184.273,550.286C184.485,545.263 182.054,546.124 178.435,545.747C173.73,545.257 171.542,545.275 168.633,548.973C165.778,536.249 160.687,524.166 157.935,511.409C155.51,500.169 153.012,489.069 151.187,477.644C150.143,471.1 149.042,464.539 147.975,457.966C145.728,444.123 143.628,430.228 142.509,416.336C141.528,404.167 140.693,392.329 140.631,380.071C140.576,368.603 141.745,357.469 142.306,345.839C142.526,341.261 141.986,336.625 142.756,332.141C143.825,325.913 145.482,319.685 146.112,313.361C147.318,301.248 145.809,289.427 156.249,280.854C158.466,284.936 161.675,294.253 167.485,289.059C169.751,287.034 169.965,285.258 169.176,283.672ZM446.54,632.253C446.384,636.6 446.468,639.003 450.325,641.606C452.274,642.921 457.343,644.93 459.28,642.71C465.057,636.099 447.749,627.019 446.54,632.253ZM335.717,568.366C336.228,561.891 333.227,557.693 327.855,562.078C324.07,565.168 320.69,568.722 321.127,573.776C322.326,587.6 337.437,578.091 335.717,568.366ZM350.105,520.216C352.198,528.431 361.293,525.911 361.292,517.921C361.291,513.638 357.784,509.574 353.756,512.268C351.53,513.756 350.78,517.883 350.105,520.216ZM384.782,606.861C384.2,610.146 381.996,626.136 388.615,625.186C394.508,624.341 388.908,608.568 384.782,606.861ZM333.257,598C332.2,600.35 330.927,612.286 336.964,608.216C339.707,606.366 337.977,596.407 333.257,598ZM158.241,421.006C158.121,421.924 149.9,421.61 149.977,426.805C150.05,431.62 155.12,432.701 158.95,432.361C162.642,432.033 167.884,430.678 167.692,426.496C167.473,421.738 161.627,421.561 158.241,421.006ZM234.805,385.2C231.288,386.192 226.824,386.491 227.589,391.065C228.111,394.181 232.361,396.307 235.233,396.5C238.735,396.735 242.627,394.87 242.335,390.68C242.062,386.721 237.921,386.204 234.805,385.2ZM275.183,453.545C273.356,457.367 276.955,471.79 283.316,467.185C288.507,463.428 278.538,453.972 275.183,453.545ZM347.77,456.035C346.451,450.531 340.143,440.619 339.59,452.001C339.244,459.107 345.331,465.425 347.77,456.035ZM231.813,529.591C231.813,522.018 228.055,522.331 221.513,521.997C217.454,521.789 213.014,520.445 211.423,524.975C207.248,536.854 227.263,530.314 231.813,529.591ZM176.862,506.033C178.362,509.738 178.994,513.926 183.521,512.129C185.233,511.45 190.376,502.383 189.733,500.361C187.723,494.042 176.809,500.587 176.862,506.033ZM241.74,628.058C237.894,630.391 240.04,636.646 242.237,639.316C244.078,641.553 252.257,645.953 254.955,643.823C262.165,638.128 245.345,630.247 241.74,628.058ZM194.879,301.397C194.726,310.732 208.799,304.619 207.996,298.874C207.108,292.515 194.983,295.087 194.879,301.397ZM359.79,639.022C361.879,648.519 367.423,648.029 368.874,638.219C369.408,634.612 369.542,631.132 365.004,631.612C361.04,632.03 360.664,635.849 359.79,639.022ZM169.144,449.728C165.306,453.898 169.24,461.281 173.14,463.783C176.382,465.862 182.035,465.686 185.775,464.506C199.904,460.048 172.704,451.185 169.144,449.728ZM243.155,419.574C243.627,409.45 230.426,412.184 230.513,421.533C230.611,431.994 243.257,426.174 243.155,419.574ZM307.208,613.634C302.892,616.897 310.32,634.333 315.905,630.044C321.708,625.588 311.702,614.664 307.208,613.634ZM311.486,530.946C301.03,533.238 309.2,543.415 316.226,542.251C325.206,540.764 317.264,531.406 311.486,530.946ZM248.344,543.79C246.916,548.621 247.228,553.743 250.672,557.895C252.509,560.109 258.282,563.781 261.329,561.639C267.274,557.46 251.657,542.439 248.344,543.79ZM218.63,560.188C212.717,562.021 202.002,573.869 209.837,579.891C215.484,584.231 225.443,563.833 218.63,560.188ZM266.297,596.676C267.27,589.265 252.901,588.85 252.373,596.802C251.546,609.25 262.609,599.976 266.297,596.676ZM175.838,318.044C162.767,318.044 173.909,331.283 182.194,331.643C193.576,332.134 185.07,316.972 175.838,318.044ZM168.314,376.472C168.314,372.799 162.478,361.269 157.492,363.112C150.416,365.724 161.994,377.898 168.314,376.472ZM248.937,471.036C249.205,467.546 249.371,451.911 242.297,460.534C240.45,462.787 240.355,468.819 242.507,470.984C244.978,473.47 245.719,472.551 248.937,471.036ZM208.863,355.222C205.596,356.263 201.23,356.743 198.776,359.298C196.385,361.788 193.713,368.199 196.61,371.175C202.283,377.002 216.573,361.948 208.863,355.222ZM288.497,570.864C288.346,574.238 288.53,580.258 293.618,580.019C297.923,579.817 298.753,574.532 299.611,571.05C302.654,558.701 287.976,562.164 288.497,570.864ZM363.795,574.048C363.7,578.432 364.884,581.39 369.403,582.499C372.483,583.254 378.342,582.583 378.77,579.726C379.575,574.353 365.245,569.123 363.796,574.003C363.768,575.148 363.738,576.293 363.712,577.446C363.742,576.318 363.769,575.183 363.795,574.048Z" style="fill:white;"/>
        <path d="M320.623,200.652C320.612,201.01 320.609,201.371 320.613,201.733C320.671,207.267 322.359,213.238 321.679,218.586C321.046,223.555 319.913,222.472 314.915,223.472C309.756,224.506 309.41,225.209 306.541,229.243C305.277,231.017 300.745,239.591 298.694,239.957C295.368,240.55 289.748,234.808 286.413,239.335C283.133,243.787 290.421,245.343 293.206,246.471C292.108,246.682 291.008,246.859 289.905,247.005C288.429,246.304 286.968,246.443 285.517,247.158L289.206,247.093C273.578,248.969 257.523,244.696 242.354,243.374C242.335,243.372 242.315,243.371 242.295,243.369L240.531,243.251C244.49,234.762 245.756,225.446 244.824,216.166C244.327,211.217 244.048,207.802 240.643,204.56C238.092,202.129 234.626,200.819 232.135,198.166C222.189,187.579 224.125,159.286 243.972,163.511C247.197,164.198 251.415,166.692 253.689,169.103C255.045,170.54 254.78,172.214 256.437,173.454C262.809,178.222 273.721,176.003 280.735,175.04C297.143,172.79 312.834,168.65 328.881,165.16C325.104,176.995 321.046,188.025 320.625,200.605C320.624,200.621 320.624,200.636 320.623,200.652ZM237.863,192.1C238.672,192.079 239.48,192.058 240.299,192.032C239.494,192.053 238.678,192.077 237.863,192.1ZM232.78,184.266C233.094,187.713 234.539,191.228 237.863,192.1C248.71,191.784 247.313,170.704 238.573,167.622C233.869,165.964 234.985,167.743 234.549,171.837L235.569,174.042L232.956,180.005C232.204,181.423 232.126,182.842 232.78,184.266ZM308.604,179.115C303.985,178.982 297.418,180.074 295.578,185.166C293.236,191.65 297.751,190.609 302.08,189.848C305.344,189.274 313.345,190.574 315.774,187.826C319.692,183.39 312.541,178.805 308.604,179.115ZM304.462,209.614C307.799,207.506 314.594,197.133 308.334,194.428C302.248,191.8 300.462,206.407 304.462,209.614Z" style="fill:white;"/>
        <path d="M227.16,253.53C222.107,261.158 217.66,268.161 214.2,276.648L203.61,263.758C208.216,261.306 212.821,258.292 217.71,256.478C218.934,256.024 226.226,253.056 227.16,253.53Z" style="fill:white;"/>
        <path d="M229.567,306.335C241.75,324.039 254.696,340.646 267.79,357.653C280.422,374.058 279.842,396.523 284.246,416.061C277.271,410.368 272.515,398.443 267.891,390.758C262.485,381.772 257.119,372.923 252.889,363.303C248.523,353.378 243.999,343.523 239.69,333.573C238.506,330.837 228.366,306.47 229.567,306.335Z" style="fill:white;"/>
        <g>
            <path d="M227.16,253.53C226.226,253.056 218.934,256.024 217.71,256.478C212.821,258.292 208.216,261.306 203.61,263.758L214.2,276.648C217.66,268.161 222.107,261.158 227.16,253.53ZM229.567,306.335C228.366,306.47 238.506,330.837 239.69,333.573C243.999,343.523 248.523,353.378 252.889,363.303C257.119,372.923 262.485,381.772 267.891,390.758C272.515,398.443 277.271,410.368 284.246,416.061C279.842,396.523 280.422,374.058 267.79,357.653C254.696,340.646 241.75,324.039 229.567,306.335ZM738.321,566.895C718.754,535.91 694.26,508.499 673.856,478.067C662.431,461.027 651.311,443.769 641.694,425.631C634.699,412.437 630.351,393.611 619.547,383.525C614.786,379.081 609.699,374.731 603.31,372.74C594.567,370.016 582.529,372.716 573.746,374.87C557.379,378.883 541.39,385.115 525.887,391.66C510.162,398.298 496.746,410.222 482.538,419.802C467.297,430.08 450.799,437.567 433.723,444.121C418.855,449.828 405.628,458.021 390.839,463.765C387.892,464.91 381.878,464.742 379.406,466.235C376.742,467.842 377.791,472.588 374.557,474.339C373.098,475.129 372.612,472.265 371.492,472.312C370.122,472.369 368.873,473.977 367.553,474.995C362.178,479.142 365.471,481.907 367.599,487.613C374.536,506.205 378.264,525.121 388.004,542.673C396.012,557.1 407.473,570.028 420.967,579.579C423.02,581.033 429.711,586.665 432.12,586.289C434.289,585.954 438.702,580.188 440.2,578.622C446.995,571.516 453.206,563.872 459.997,556.755C470.491,545.755 480.593,534.462 490.777,523.313C502.599,510.37 513.062,495.705 523.71,481.876C528.608,475.514 534.913,470.332 540.357,464.433C547.678,456.501 554.4,447.973 561.345,439.713C563.445,437.213 566.965,430.818 570.23,430.893C572.518,430.946 576.552,436.333 577.749,438.021C582.197,444.296 582.177,455.628 584.389,463.461C589.787,482.561 599.52,501.216 612.869,515.955C626.143,530.612 643.147,541.035 658.847,552.815C675.855,565.58 691.968,578.642 705.456,595.129C710.809,590.173 716.642,585.788 722.016,580.772C727.135,575.995 733.805,572.119 738.321,566.895ZM486.452,654.555C490.256,654.594 496.698,656.934 500.101,655.525C490.007,644.355 480.737,634.773 467.966,626.588C454.713,618.094 441.504,609.676 428.632,600.616C402.691,582.358 383.611,560.705 372.775,530.299C369.985,522.469 368.116,514.257 366.071,506.208C364.971,501.873 362.781,481.593 359.062,479.842C356.859,478.804 340.279,490.457 337.652,491.909C331.51,495.306 325.345,497.939 318.995,500.598C305.346,506.313 291.275,510.672 276.801,514.311C259.448,518.674 247.628,511.455 236.878,497.816C224.682,482.342 214.547,464.883 203.396,448.633C198.325,441.242 194.124,433.863 190.379,425.711C187.928,420.377 178.207,405.986 181.566,400.303C191.149,407.599 194.597,422.106 201.125,431.875C209.261,444.05 218.43,455.529 226.608,467.693C233.485,477.921 240.501,490.316 250.661,497.669C259.598,504.136 268.088,502.148 277.706,499.241C289.363,495.719 301.446,493.983 312.87,489.614C325.233,484.887 336.93,478.181 348.992,472.713C354.615,470.163 361.348,468.713 366.647,465.535C371.214,462.797 370.533,461.351 370.868,455.52C371.26,448.717 371.711,441.909 372.012,435.1C372.214,430.525 369.74,424.322 371.419,420.907C357.725,423.281 344.341,426.461 330.743,429.274C323.298,430.814 316.119,432.718 308.598,433.928C305.731,434.388 301.812,434.376 299.245,435.625C297.197,435.037 296.153,435.411 296.113,436.745C296.015,437.471 295.86,438.185 295.647,438.889C291.448,440.799 289.006,436.702 285.364,432.772C280.87,427.922 277.505,422.46 274.208,416.761C266.836,404.019 258.339,392.035 251.517,378.934C244.564,365.579 238.917,351.28 233.022,337.424C227.614,324.712 224.151,310.964 218.175,298.553C215.508,293.013 212.128,288.432 208.181,283.752C204.924,279.89 199.913,271.559 195.049,269.785C193.763,269.315 190.395,270.104 188.934,270C186.022,269.792 183.427,268.723 180.447,268.957C173.995,269.462 166.961,273.542 161.805,277.129C165.137,280.099 173.472,283.709 167.485,289.059C161.675,294.253 158.466,284.936 156.249,280.854C145.809,289.427 147.318,301.248 146.112,313.361C145.482,319.685 143.825,325.913 142.756,332.141C141.986,336.625 142.526,341.261 142.306,345.839C141.745,357.469 140.576,368.603 140.631,380.071C140.693,392.329 141.528,404.167 142.509,416.336C144.16,436.824 147.943,457.319 151.187,477.644C153.012,489.069 155.51,500.169 157.935,511.409C160.687,524.166 165.778,536.249 168.633,548.973C171.542,545.275 173.73,545.257 178.435,545.747C182.054,546.124 184.485,545.263 184.273,550.286C184.136,553.544 181.262,556.032 178.082,556.601C173.935,557.341 172.526,555.273 170.389,552.131C169.889,558.08 173.889,564.299 175.471,570.108C176.968,575.613 177.96,581.008 180.476,586.278C182.931,591.418 185.033,596.488 187.517,601.578C188.661,603.921 189.731,606.3 190.888,608.636C191.473,609.819 192.162,611.449 193.035,612.446C195.083,614.783 194.757,613.651 197.154,614.982C202.376,617.882 200.415,617.16 200.537,623.15C200.656,629.059 203.686,633.4 208.545,636.72C218.854,643.769 229.022,645.729 240.742,649.29C251.662,652.608 263.164,655.455 274.727,655.39C288.889,655.31 302.863,653.454 317.025,653.266C332.649,653.059 348.423,653.144 364.015,653.684C370.438,653.906 376.403,654.192 382.604,655.832C389.805,657.738 396.771,656.982 404.193,656.692C420.027,656.077 436.407,654.852 452.034,654.742C463.286,654.662 475.158,653.877 486.452,654.555ZM897.04,660.693C899.855,662.18 906.165,661.57 908.995,661.157C913.98,660.43 914.514,658.454 917.677,654.009C923.121,646.354 927.541,639.023 930.744,630.156C936.874,613.185 939.377,595.823 942.068,578.07C945.059,558.344 939.597,537.897 937.643,518.305C937.194,513.81 936.58,509.355 935.87,504.895C935.445,502.228 935.334,493.155 933.579,490.845C930.207,486.41 914.527,489.988 908.362,490.39C891.154,491.514 873.833,491.777 856.633,491.972C847.462,492.076 838.24,492.46 829.16,492.531C824.99,492.564 820.913,492.357 816.728,491.951C815.328,491.816 813.961,491.494 812.551,491.416C807.723,491.149 808.086,490.449 806.838,494.724C804.652,502.214 806.334,511.743 805.76,519.517C804.992,529.905 804.577,540.44 804.767,550.85C804.943,560.47 804.615,570.068 804.974,579.709C805.124,583.702 805.56,586.957 806.613,590.769C807.804,595.081 809.114,605.153 812.08,608.136C812.417,608.476 814.938,607.684 815.607,608.53C816.638,609.833 816.449,612.59 817.157,613.432C819.448,616.158 824.183,616.374 827.618,617.599C837.043,620.959 845.689,624.609 854.572,629.141C862.509,633.19 875.306,636.636 880.078,644.624C882.266,648.286 882.561,653.114 884.573,656.893C886.864,661.197 882.28,658.947 887.893,660.693C890.421,661.479 894.449,660.693 897.04,660.693ZM60.285,612.015C59.571,621.954 53.972,631.421 52.023,641.193C51.111,645.769 49.564,650.267 48.492,654.816C47.464,659.18 43.75,664.348 44.126,668.666C57.834,663.782 71.719,662.554 86.046,661.236C99.625,659.988 113.97,659.491 127.435,659.485C141.156,659.478 155.827,658.138 169.955,657.93C184.73,657.713 199.728,657.33 214.289,655.798C206.675,650.158 197.148,644.863 191.526,637.017C185.414,628.487 182.24,617.802 176.862,608.802C166.07,590.741 159.209,568.33 153.552,548.039C142.131,507.077 129.368,466.871 126.292,424.383C120.438,427.381 115.791,439.012 112.86,444.803C109.119,452.199 107.16,460.215 104.728,468.075C99.72,484.264 96.254,501.05 90.122,517.085C78.402,547.737 70.869,580.765 60.285,612.015ZM804.397,373.278C806.932,391.598 812.248,410.155 812.452,428.696C812.497,432.775 811.806,437.305 812.656,441.326C813.564,445.621 816.517,449.416 818.222,453.498C820.928,459.976 827.781,473.254 821.172,478.743C821.038,473.533 816.271,466.919 813.87,462.363C810.251,455.501 805.496,449.226 801.573,442.533C793.361,428.523 784.159,414.815 773.576,402.465C763.268,390.435 751.388,379.764 740.457,368.309C737.173,364.867 710.827,331.739 709.78,332.203C717.952,363.717 731.844,391.137 750.855,417.523C760.176,430.458 771.363,438.97 782.71,449.928C792.159,459.054 809.968,468.812 806.701,483.765C821.472,482.345 836.146,480.075 851.051,480.075C848.6,461.211 846.723,442.645 842.347,424.09C837.379,403.02 834.014,381.322 829.81,360.066C825.52,338.366 818.243,317.358 813.716,295.699C809.391,275.003 805.643,254.19 802.479,233.285C799.853,244.905 800.822,257.668 799.89,269.524C798.938,281.637 799.03,293.527 799.347,305.711C799.934,328.341 802.346,350.7 804.397,373.278ZM868.403,265.38C868.486,255.693 870.363,246.137 870.942,236.473C871.12,233.508 874.073,213.279 871.319,212.223C869.054,217.161 868.526,223.48 866.469,228.661C864.414,233.837 861.665,238.768 859.693,243.98C855.421,255.27 853.947,268.047 853.487,280.05C852.446,307.203 851.908,334.294 853.733,361.446C854.515,373.084 855.115,384.742 854.901,396.403C854.666,409.233 852.701,420.371 855.087,433.097C857.449,445.699 858.933,458.249 859.72,471.035C860.272,480.009 860.494,479.374 869.056,478.743C875.237,478.287 881.479,478.773 887.669,478.491C884.775,443.515 884.302,408.467 879.679,373.625C877.32,355.85 877.257,337.818 874.327,320.109C872.871,311.312 870.428,302.692 869.024,293.885C867.517,284.429 868.259,274.909 868.403,265.38ZM242.295,243.369C258.778,244.797 276.311,249.725 293.206,246.471C290.421,245.343 283.133,243.787 286.413,239.335C289.748,234.808 295.368,240.55 298.694,239.957C300.745,239.591 305.277,231.017 306.541,229.243C309.41,225.209 309.756,224.506 314.915,223.472C319.913,222.472 321.046,223.555 321.679,218.586C322.406,212.872 320.429,206.448 320.625,200.605C321.046,188.025 325.104,176.995 328.881,165.16C312.834,168.65 297.143,172.79 280.735,175.04C273.721,176.003 262.809,178.222 256.437,173.454C254.78,172.214 255.045,170.54 253.689,169.103C251.415,166.692 247.197,164.198 243.972,163.511C224.125,159.286 222.189,187.579 232.135,198.166C234.626,200.819 238.092,202.129 240.643,204.56C244.048,207.802 244.327,211.217 244.824,216.166C245.756,225.446 244.49,234.762 240.531,243.251L242.295,243.369ZM483.14,376.939C488.999,378.051 495.114,377.797 500.988,378.746C503.075,379.083 509.332,380.259 511.167,379.039C513.969,377.176 514.965,370.343 516.29,367.161C518.62,361.564 521.917,356.681 524.139,350.983C533.219,327.705 541.686,304.333 552.668,281.851C548.459,280.757 545.227,280.714 540.985,280.149C536.566,279.559 532.56,276.947 528.344,275.824C524.337,274.757 520.139,275.029 516.169,273.788C513.982,273.105 512.105,271.586 509.949,271.055C506.512,270.21 502.501,269.715 500.457,271.972C498.362,274.286 497.627,280.631 496.487,283.62C493.451,291.583 489.924,299.268 487.381,307.414C485.086,314.761 482.906,322.03 480.886,329.444C478.752,337.271 474.546,343.722 471.984,351.199C470.035,356.889 468.196,362.708 467.905,368.776C467.622,374.696 466.76,375.074 472.681,376.02C475.67,376.497 480.328,378.273 483.14,376.939ZM868.63,654.055C870.156,654.765 871.595,654.672 872.945,653.771C859.715,648.183 846.846,640.433 833.044,636.599C820.097,633.004 807.513,628.708 795.04,624.279C784.905,620.682 775.793,617.881 766.63,611.549C761.068,607.705 756.127,603.383 752.305,597.766C748.05,591.512 747.103,582.612 742.495,576.98C736.275,583.81 728.968,588.984 721.609,594.412C719.063,596.29 712.956,600.384 712.085,603.29C710.986,606.957 713.93,610.465 715.386,614.176C719.115,623.68 720.937,633.179 722.96,643.06C723.771,647.02 725.522,652.973 728.775,654.632C731.737,656.141 740.315,655.044 744.001,654.764C763.231,653.307 782.12,651.814 801.466,653.142C823.358,654.642 846.795,655.68 868.63,654.055ZM907.039,477.943C910.534,477.955 913.948,477.518 917.43,477.518C915.42,468.133 920.119,455.988 921.785,446.621C923.649,436.141 925.068,425.306 926.311,414.743C928.931,392.493 930.118,370.515 930.152,348.103C930.184,326.416 934.132,306.598 939.662,285.75C945.6,263.36 955.324,243.225 963.364,221.632C954.545,226.294 949.663,237.202 945.029,245.542C939.171,256.088 935.269,267.764 932.877,279.602C928.262,302.439 923.2,325.345 917.875,348.144C912.33,371.883 909.07,395.84 902.718,419.384C899.62,430.867 895.408,444.993 895.174,456.834C895.077,461.732 893.601,471.99 895.821,476.244C897.897,480.224 902.487,478.349 907.039,477.943ZM379.488,448.489C379.304,450.927 379.13,453.246 378.697,455.654C383.538,455.608 389.669,450.584 393.821,448.33C398.879,445.583 403.943,442.553 408.89,439.792C418.44,434.46 429.282,430.947 439.479,426.567C451.193,421.535 461.96,415.455 473.162,409.397C477.075,407.281 505.197,395.091 504.725,391.761L486.202,391.145C480.909,390.969 472.711,392.165 467.642,390.529C464.866,389.632 461.749,386.331 460.701,383.746C459.664,381.188 461.995,369.423 460.64,368.673C453.73,375.728 449.385,385.105 443.207,392.716C436.38,401.128 427.558,406.04 417.835,410.51C407.098,415.447 395.985,419.27 385.012,423.5C380.384,425.285 380.476,426.306 380.073,431.38C379.622,437.05 379.671,442.803 379.488,448.489ZM937.435,661.849C949.074,663.098 961.002,662.386 972.732,663.359C977,663.714 982.917,664.242 978.623,669.969C975.919,673.578 967.257,672.421 963.328,672.671C952.779,673.341 941.61,672.981 931.037,672.825C928.811,672.793 926.351,672.131 924.101,672.28C921.504,672.45 918.394,674.319 916.027,674.305C914.568,674.295 914.045,672.757 912.787,672.615C910.046,672.308 907.306,672.083 904.542,672.084C862.752,672.093 821.536,671.253 779.85,671.208C759.917,671.187 739.664,670.843 719.739,669.907C715.555,669.71 691.727,670.566 692.387,663.032C692.726,659.152 700.503,658.605 703.341,658.192C705.444,657.888 707.626,657.936 709.733,657.822C715.331,657.522 717.783,658.87 716.602,652.745C712.123,629.513 704.097,610.313 686.949,593.609C672.927,579.949 656.043,567.559 640.161,556.154C620.877,542.304 605.233,527.738 593.784,506.544C587.098,494.169 581.501,481.516 578.066,467.832C576.83,462.909 576.801,457.31 575.286,452.564C574.121,448.91 571.465,446.353 569.901,442.568C550.715,474.614 525.286,501.425 501.97,530.318C490.829,544.123 478.12,557.234 464.809,569.243C460.859,572.807 457.173,576.528 453.486,580.363C450.402,583.573 445.506,586.426 442.902,589.987C440.404,593.403 441.019,593.24 444.821,595.953C449.847,599.538 455.386,602.517 460.491,606.013C468.651,611.602 477.558,616.323 484.854,623.05C492.745,630.324 499.639,638.75 506.536,646.952C511.133,652.419 517.165,659.434 518.321,666.346C518.704,668.633 520.158,674.289 518.239,675.964C516.599,677.394 516.764,676.852 514.728,675.979C512.06,674.835 511.275,672.209 508.016,670.959C499.677,667.759 489.586,668.858 480.909,668.819C472.229,668.779 463.477,669.755 454.801,669.719C434.989,669.638 415.599,671.242 395.793,672.103C374.757,673.017 353.463,670.823 332.497,671.133C316.963,671.363 301.015,670.203 285.052,671.066C276.841,671.509 268.777,670.482 260.771,670.366C250.289,670.216 239.524,671.642 228.952,671.845C211.6,672.18 194.46,672.178 177.002,672.595C139.45,673.494 102.101,674.422 64.527,675.017C59.515,675.096 54.028,674.926 49.075,675.49C43.818,676.09 46.532,677.207 42.925,679.1C32.827,684.397 35.159,664.76 35.401,660.899C36.699,640.203 41.953,619.905 48.267,600.257C54.257,581.622 59.12,562.117 64.193,543.08C69.746,522.243 76.981,502.259 83.551,481.627C90.283,460.485 95.764,438.519 107.991,419.777C110.776,415.51 113.654,410.917 118.134,408.226C123.156,405.209 123.372,406.971 123.368,401.45C123.365,396.25 123.685,389.303 122.458,384.34C121.349,379.858 121.52,382.516 119.023,379.296C116.991,376.676 114.865,374.886 113.407,371.706C104.451,380.788 83.95,375.996 75.297,369.456C64.706,361.453 56.639,347.95 53.683,335.09C51.309,324.763 54.222,305.078 65.652,300.112C71.224,297.691 91.69,295.861 92.509,287.971C92.931,283.898 85.728,278.171 84.066,274.669C80.986,268.181 78.028,259.551 77.172,252.439C75.5,238.557 81.802,223.034 91.841,213.657C110.257,196.455 142.66,187.627 166.349,198.541C161.343,179.418 158.321,162.921 160.842,143.029C163.014,125.892 173.125,116.304 187.038,107.768C210.78,93.2 243.066,87.45 270.213,91.686C276.382,92.649 282.302,94.714 288.014,96.356C296.312,98.744 306.246,97.949 314.081,101.826C319.762,104.638 324.076,110.238 329.065,113.976C334.89,118.342 339.73,124.856 343.777,130.882C352.432,143.766 349.05,167.678 341.806,180.611C340.253,183.385 338.334,185.72 335.764,187.613C333.088,189.583 329.009,190.196 327.63,192.751C324.098,199.296 327.505,213.465 327.976,220.539C328.525,228.753 324.372,234.923 315.058,235.578C309.67,235.958 309.498,232.832 306.918,239.264C305.246,243.433 303.727,247.974 301.314,251.797C296.339,259.674 287.227,258.905 278.927,258.692C269.319,258.444 259.855,256.926 250.242,255.968C252.781,264.103 259.731,270.417 264.071,277.664C269.939,287.466 273.471,295.591 274.425,307.011C275.157,315.785 273.577,322.714 267.573,329.244C265.088,331.947 262.885,332.08 263.502,335.198C263.878,337.1 267.167,340.238 268.331,341.756C271.41,345.772 274.985,349.458 277.695,353.746C288.123,370.249 291.203,395.405 291.229,414.615C291.23,415.495 291.7,417.369 291.311,418.28C291.023,418.953 288.835,421.084 288.803,421.267C288.375,423.737 290.783,427.971 294.562,428.39C298.531,428.829 305.8,425.517 309.492,424.429C315.4,422.687 321.422,421.401 327.317,419.612C336.838,416.722 346.315,414.419 355.994,412.155C360.368,411.133 364.766,410.281 369.154,409.325C374.152,408.237 376.474,406.134 379.054,411.219C381.267,415.583 379.891,416.374 385.252,414.175C390.575,411.99 395.776,409.282 400.973,406.815C410.139,402.468 421.055,398.592 428.962,392.173C442.151,381.463 447.035,364.41 459.658,353.047C463.173,349.883 465.27,349.827 467.492,345.444C469.871,340.753 471.098,334.737 472.348,329.691C474.539,320.855 476.098,311.988 478.085,303.16C480.56,292.162 485.909,282.202 489.812,271.712C491.333,267.625 492.121,262.43 494.574,258.757C495.224,257.783 496.466,257.234 496.973,256.427C498.718,253.661 498.7,252.901 499.152,249.572C501.267,234.017 510.552,242.2 520.698,245.767C524.973,247.27 545.272,257.017 537.521,263.499C546.761,266.179 561.56,264.723 561.436,277.965C561.372,284.75 557.314,292.008 555.136,298.359C553.201,303.998 551.331,309.659 549.366,315.289C545.061,327.622 539.838,339.586 535.637,351.957C533.722,357.595 532.142,363.365 529.476,368.686C527.125,373.38 521.432,378.554 520.494,383.686C545.117,373.182 567.896,357.994 595.457,358.962C607.525,359.385 618.477,364.458 625.142,375.069C633.498,388.369 638.996,403.259 647.163,416.683C676.874,465.512 712.31,509.872 744.926,556.68C747.431,560.277 750.653,563.678 751.522,568.123C752.089,571.023 750.989,573.923 751.669,576.71C753.08,582.5 760.209,589.729 765.043,593.056C774.309,599.434 789.372,608.43 800.935,607.634C793.678,590.194 793.775,571.084 794.112,552.482C794.433,534.811 796.343,517.282 798.61,499.792C799.123,495.836 799.57,492.168 800.707,488.332C802.012,483.932 803.804,484.35 799.895,480.395C793.879,474.305 786.723,469.294 780.658,463.128C767.541,449.794 754.097,439.343 743.773,423.42C733.955,408.275 723.597,392.692 716.329,376.107C708.847,359.034 705.856,340.801 702.142,322.72C700.635,315.383 695.139,307.192 696.243,299.53C697.639,289.847 702.129,296.898 703.957,302.109C709.535,318.016 722.596,332.253 733.414,345.046C745.102,358.866 759.397,370.429 771.597,383.846C784.882,398.461 793.982,415.256 805.796,430.856C805.796,411.496 799.186,391.782 796.482,372.63C794.103,355.773 793.356,338.863 791.852,321.933C788.437,283.475 791.388,243.883 796.181,205.701C798.459,187.567 797.167,169.86 797.236,151.664C797.258,145.873 794.861,132.526 797.916,127.387C803.767,117.544 807.18,139.067 807.476,142.276C809.245,161.392 806.072,180.295 807.693,199.329C809.387,219.206 813.063,238.525 816.191,258.172C819.58,279.445 825.097,300.238 830.379,321.102C835.925,343.01 840.589,365.374 846.755,387.106C848.418,380.275 846.085,371.883 845.624,364.926C844.966,354.97 843.681,345.012 843.57,335.03C843.392,319.12 843.268,302.917 844.168,287.082C845.055,271.474 844.787,255.119 849.574,240.082C851.846,232.945 855.178,225.982 858.438,219.259C862.46,210.969 863.882,202.931 866.109,194.114C868.017,186.563 870.809,179.211 872.08,171.509C872.87,166.719 875.075,152.579 880.559,163.292C883.743,169.51 882.367,178.728 882.456,185.408C882.57,193.972 881.259,202.298 881.058,210.827C880.667,227.559 880.386,244.271 879.138,260.975C877.829,278.5 878.972,294.205 882.306,311.474C885.955,330.376 887.023,349.319 888.914,368.452C889.889,378.331 891.533,388.155 892.327,398.048C892.747,403.287 890.593,418.31 894.347,422.041C894.71,412.967 897.31,403.885 899.281,395.043C901.616,384.568 902.559,373.556 904.28,362.931C907.067,345.717 912.475,329.278 916.053,312.257C923.428,277.17 929.556,232.075 960.464,209.109C964.508,206.104 968.952,203.886 973.324,201.413C975.799,200.013 979.476,196.391 982.308,195.759C985.399,195.069 986.688,195.605 987.941,199.191C989.688,204.19 986.493,206.525 983.51,210.156C973.187,222.72 968.777,238.826 962.403,253.561C947.807,287.301 941.349,322.89 941.275,359.361C941.236,378.455 939.919,396.87 937.883,415.847C935.692,436.27 932.807,457.87 926.602,477.517C932.825,478.912 939.577,476.832 941.266,484.066C941.681,485.843 940.931,487.944 941.39,490.256C941.836,492.505 942.909,494.741 943.544,496.952C944.856,501.525 945.55,506.037 946.188,510.732C948.655,528.881 952.891,546.142 953.342,564.542C953.757,581.552 950.427,598.785 947.359,615.467C944.268,632.269 935.403,646.592 928.424,661.787C931.428,661.787 934.431,661.817 937.435,661.849Z"/>
            <path d="M542.434,623.225C539.124,624.161 523.145,625.927 523.148,630.941C523.15,633.948 539.108,633.889 541.932,634.216L542.434,623.226M577.705,657.824C586.913,659.575 599.412,657.114 605.299,648.995C608.05,645.202 609.354,639.433 610.25,634.906C611.106,630.592 613.745,619.827 611.95,615.783C609.744,610.817 588.587,616.007 582.426,616.577C571.677,617.569 560.562,617.687 549.806,616.985C549.806,628.091 549.238,638.915 555.77,648.475C560.483,655.371 569.333,656.999 577.705,657.825M575.855,671.542C565.849,667.88 555.345,670.26 548.83,659.519C547.177,656.794 545.785,653.864 544.785,650.837C544.296,649.512 543.915,648.149 543.646,646.762C544.156,643.768 543.058,642.924 540.356,644.229C535.053,643.199 529.238,646.839 523.652,645.765C510.104,643.163 512.565,623.756 521.657,617.038C523.453,615.71 525.247,615.341 527.303,614.685C531.835,613.241 534.288,614.855 538.433,614.445C541.783,614.113 542.704,610.6 546.304,609.053C548.661,608.041 551.934,608.119 554.411,608.017C567.379,607.484 580.388,607.489 593.439,606.644C599.526,606.25 606.099,607.214 612.061,606.174C614.853,605.686 614.452,603.828 617.096,605.458C619.833,607.146 618.651,613.388 618.513,615.878C617.714,630.27 616.857,645.706 609.147,658.289C602.093,669.802 588.212,670.98 575.854,671.542M47.467,675.508C50.686,675.473 53.904,675.438 57.112,675.406L47.467,675.508M941.295,368.631L941.275,359.361L941.295,368.631M122.468,381.329L122.438,390.358C122.447,387.344 122.457,384.336 122.468,381.328M390.037,672.093C392.598,672.097 395.159,672.1 397.708,672.107C395.143,672.104 392.591,672.099 390.037,672.093M234.54,671.479C237.1,671.487 239.66,671.495 242.21,671.505C239.645,671.498 237.093,671.488 234.54,671.479M794.45,546.388L794.112,552.481L794.45,546.388M937.435,661.848C935.456,661.828 933.477,661.808 931.498,661.786C933.486,660.957 935.465,660.994 937.435,661.848M761.73,670.85C763.15,670.828 764.57,670.806 765.977,670.782C764.553,670.803 763.141,670.827 761.729,670.85M940.524,393.719L940.629,389.115L940.524,393.718M494.54,668.88C495.804,668.899 497.067,668.917 498.319,668.933C497.054,668.913 495.797,668.897 494.541,668.88M819.847,671.47C821.081,671.494 822.316,671.52 823.539,671.545L819.847,671.471M953.2,559.76C953.111,558.366 953.022,556.974 952.935,555.582C953.025,556.976 953.112,558.369 953.2,559.76M931.037,672.825C932.038,672.818 933.039,672.814 934.04,672.811C933.039,672.818 932.038,672.822 931.037,672.825M794.119,671.534L797.094,671.462L794.119,671.534"/>
            <path d="M570.43,670.774C571.527,670.768 572.622,670.762 573.707,670.754L570.431,670.774M256.371,670.938L259.545,670.761L256.371,670.938M550.576,266.32L545.836,265.911C547.418,266.022 549.091,265.086 550.576,266.321M953.35,662.449L948.676,661.976L953.35,662.449M844.678,275.913L844.364,280.005L844.678,275.913M941.617,332.825L941.935,328.948L941.617,332.825M844.058,297.087L843.722,301.17L844.058,297.087M940.957,385.063L940.927,381.116C941.777,382.429 941.744,383.743 940.957,385.063M794.473,574.195C794.461,575.515 794.45,576.835 794.436,578.15C793.564,576.819 793.738,575.504 794.473,574.195M893.775,421.472L893.318,417.467L893.775,421.472M71.51,298.843C70.477,300.208 69.07,299.273 67.842,299.439C69.066,299.239 70.288,299.042 71.51,298.843M582.302,607.59L578.387,607.596L582.302,607.591M790.799,304.451L791.164,307.777L790.799,304.451M145.851,194.21L141.915,194.288C143.213,193.524 144.521,193.303 145.851,194.21M844.025,316.288L843.771,319.774L844.025,316.288M808.046,173.406L808.35,170.228L808.046,173.406M797.736,170.082C797.633,171.232 797.53,172.382 797.428,173.532L797.736,170.082M227.843,93.19L223.839,93.675L227.843,93.19M131.419,195.126L127.309,195.546L131.419,195.126M882.152,198.5L882.402,195.292L882.152,198.5M86.453,375.256L88.807,375.291L86.453,375.256M878.262,276.64C878.23,275.497 878.199,274.355 878.166,273.215C878.2,274.359 878.231,275.499 878.262,276.64M261.45,90.486L257.8,90.486C259.017,89.651 260.233,89.672 261.45,90.486M586.36,359.51L582.363,359.611C583.673,358.685 585.006,358.662 586.36,359.509M702.85,668.833C703.64,668.849 704.43,668.866 705.21,668.885C704.417,668.87 703.633,668.851 702.85,668.833M732.606,670.222L734.962,670.139L732.606,670.222M266.911,670.77L269.369,670.833L266.911,670.771M952.517,546.536C952.4,545.406 952.283,544.275 952.165,543.15L952.517,546.536M845.033,356.038L845.313,359.262L845.033,356.038M886.396,337.548L886.013,334.126L886.396,337.548M273.588,671.452C274.418,671.439 275.248,671.426 276.07,671.415C275.236,671.429 274.412,671.44 273.588,671.452M575.854,671.542L578.266,671.433L575.854,671.543M879.645,254.159L879.536,250.689L879.646,254.159M194.885,672.208L197.303,672.19L194.885,672.208M879.307,672.197L881.794,672.223L879.307,672.197M897.282,672.097C898.086,672.154 898.889,672.212 899.683,672.267L897.283,672.097M904.542,672.083C905.36,672.107 906.179,672.133 906.987,672.15C906.166,672.125 905.354,672.104 904.542,672.083M941.817,342.134L941.657,338.722L941.817,342.134M392.484,657.166L399.954,656.777L392.484,657.167M242.295,243.369C244.455,243.557 246.617,243.745 248.775,243.931L242.295,243.369M852.442,337.32L852.645,343.5L852.442,337.32M897.04,660.692L903.807,661.102C901.537,661.205 899.233,661.852 897.04,660.692M883.69,416.786L883.74,410.89L883.69,416.786M877.916,478.587L883.854,478.666L877.916,478.586M868.63,654.054C870.07,653.957 871.51,653.86 872.947,653.766C871.864,654.634 870.775,654.706 868.63,654.054M858.993,459.056L859.289,463.875L858.993,459.055M320.578,205.252L320.624,200.599L320.578,205.252M860.736,478.911L866.103,478.794C864.333,479.65 862.543,479.68 860.736,478.911M446.78,654.673L452.035,654.741C450.27,655.626 448.516,655.751 446.779,654.673M116.749,659.835C118.527,659.675 120.306,659.517 122.084,659.358L116.749,659.835M853.06,350.564L853.32,355.401L853.06,350.564M285.517,247.158C287.017,246.419 288.527,246.295 290.053,247.078L285.517,247.158M804.026,369.201L804.398,373.281L804.026,369.201M930.653,337.434C929.883,336.102 929.91,334.777 930.691,333.464L930.653,337.434M853.305,291.194L853.305,295.232L853.305,291.194M907.039,477.943C908.582,477.47 910.125,476.801 911.661,477.959L907.039,477.943M408.434,656.557L413.091,656.123L408.434,656.557M195.589,656.56C197.011,655.935 198.429,655.607 199.831,656.608L195.589,656.56M486.452,654.554C487.973,653.891 489.49,653.525 490.991,654.602L486.452,654.554M147.964,457.829L148.306,461.944C148.191,460.57 148.076,459.2 147.964,457.829M500.988,378.745C502.484,378.201 503.975,377.917 505.444,378.826C503.958,378.798 502.474,378.772 500.988,378.746M853.036,419.615L853.284,423.638L853.036,419.615M146.997,298.523L146.626,301.761L146.996,298.523M60.285,612.014L60.056,615.165C60.135,614.111 60.21,613.062 60.285,612.015M884.353,426.717L884.101,423.458L884.353,426.718M775.404,652.523L779.402,652.551C778.069,652.541 776.736,652.531 775.404,652.523M379.127,453.264L379.874,455.642C378.211,456.044 377.962,455.251 379.127,453.264M479.079,376.955L483.141,376.938C481.789,377.58 480.436,378.021 479.079,376.955M163.047,657.873L166.967,657.87C165.659,657.87 164.354,657.872 163.047,657.873M807.313,476.982L807.459,480.292C807.412,479.183 807.362,478.083 807.313,476.982M135.3,659.22C136.586,658.366 137.874,658.44 139.164,659.206L135.301,659.22M169.139,283.086C169.208,284.214 169.278,285.343 169.349,286.464C169.281,285.334 169.209,284.21 169.139,283.086M128.615,659.336L132.622,659.353C131.282,660.265 129.947,660.308 128.615,659.336M868.403,265.38L868.434,261.945L868.404,265.379M255.054,245.339L258.887,245.839L255.054,245.339M877.007,344.084L876.797,340.819L877.007,344.084M578.934,658.058L583.664,658.486L578.934,658.058M573.666,617.235C572.813,617.249 571.962,617.262 571.116,617.28C571.966,617.268 572.816,617.253 573.666,617.235M573.738,657.434L577.706,657.824L573.738,657.434M335.717,568.365C337.437,578.09 322.326,587.6 321.127,573.776C320.69,568.722 324.07,565.168 327.855,562.078C333.227,557.693 336.228,561.891 335.717,568.366M169.144,449.728C172.704,451.185 199.904,460.048 185.775,464.506C182.035,465.686 176.382,465.862 173.14,463.783C169.24,461.281 165.306,453.898 169.144,449.728M175.838,318.044C185.07,316.972 193.576,332.134 182.194,331.643C173.909,331.283 162.767,318.043 175.838,318.043M208.863,355.222C216.573,361.948 202.283,377.002 196.61,371.175C193.713,368.199 196.385,361.788 198.776,359.298C201.23,356.743 205.596,356.263 208.863,355.222M231.813,529.591C227.263,530.314 207.248,536.854 211.423,524.975C213.014,520.445 217.454,521.789 221.513,521.997C228.055,522.331 231.813,522.018 231.813,529.591M218.63,560.188C225.443,563.833 215.484,584.231 209.837,579.891C202.002,573.869 212.717,562.021 218.63,560.188M248.344,543.79C251.657,542.438 267.274,557.46 261.329,561.639C258.282,563.781 252.509,560.109 250.672,557.895C247.228,553.743 246.916,548.621 248.344,543.791M158.241,421.006C161.627,421.562 167.473,421.738 167.692,426.496C167.884,430.678 162.642,432.033 158.95,432.361C155.12,432.701 150.05,431.62 149.977,426.805C149.9,421.61 158.121,421.923 158.241,421.005M241.74,628.058C245.345,630.247 262.165,638.128 254.955,643.823C252.257,645.953 244.078,641.553 242.237,639.316C240.04,636.646 237.893,630.391 241.739,628.058M288.497,570.864C287.976,562.164 302.654,558.701 299.611,571.05C298.753,574.532 297.923,579.817 293.618,580.019C288.53,580.258 288.346,574.238 288.497,570.864M243.155,419.574C243.257,426.174 230.611,431.994 230.513,421.533C230.426,412.184 243.627,409.449 243.155,419.573M234.805,385.2C237.921,386.204 242.062,386.721 242.335,390.68C242.627,394.87 238.735,396.735 235.233,396.5C232.361,396.307 228.111,394.181 227.589,391.065C226.824,386.491 231.288,386.192 234.805,385.2M176.862,506.033C176.809,500.587 187.723,494.042 189.733,500.361C190.376,502.383 185.233,511.45 183.521,512.129C178.994,513.926 178.362,509.738 176.862,506.033M266.297,596.676C262.609,599.976 251.546,609.25 252.373,596.802C252.901,588.85 267.27,589.265 266.297,596.676M446.54,632.253C447.749,627.019 465.057,636.099 459.28,642.71C457.343,644.93 452.274,642.921 450.325,641.606C446.468,639.003 446.384,636.6 446.54,632.253M350.105,520.216C350.78,517.883 351.53,513.756 353.756,512.268C357.784,509.574 361.291,513.638 361.292,517.921C361.293,525.911 352.198,528.431 350.105,520.216M307.208,613.634C311.702,614.664 321.708,625.588 315.905,630.044C310.32,634.333 302.892,616.897 307.208,613.634M311.486,530.946C317.264,531.406 325.206,540.764 316.226,542.251C309.2,543.415 301.03,533.238 311.486,530.946M363.796,574.003C365.245,569.123 379.575,574.353 378.77,579.726C378.342,582.583 372.483,583.254 369.403,582.499C364.869,581.386 363.692,578.412 363.796,574.003M194.879,301.397C194.983,295.087 207.108,292.515 207.996,298.874C208.799,304.619 194.726,310.732 194.879,301.397M359.79,639.022C360.664,635.849 361.04,632.03 365.004,631.612C369.542,631.132 369.408,634.612 368.874,638.219C367.423,648.029 361.879,648.519 359.79,639.022M168.314,376.472C161.994,377.898 150.416,365.724 157.492,363.112C162.478,361.269 168.314,372.799 168.314,376.472M248.936,471.036C245.719,472.551 244.978,473.47 242.507,470.984C240.355,468.819 240.45,462.787 242.297,460.534C249.371,451.911 249.205,467.546 248.937,471.036M275.183,453.545C278.538,453.972 288.507,463.428 283.316,467.185C276.955,471.79 273.356,457.367 275.183,453.545M347.77,456.035C345.331,465.425 339.244,459.107 339.59,452.001C340.143,440.619 346.451,450.531 347.77,456.035M384.782,606.861C388.908,608.568 394.508,624.341 388.615,625.186C381.996,626.136 384.2,610.146 384.782,606.861M333.257,598C337.977,596.407 339.707,606.366 336.964,608.216C330.927,612.286 332.2,600.35 333.257,598"/>
            <path d="M288.497,570.864L288.316,574.822C288.375,573.498 288.435,572.181 288.496,570.864M363.796,574.003C363.77,575.153 363.742,576.303 363.712,577.446C363.738,576.293 363.768,575.148 363.796,574.003M885.993,554.212C895.781,553.898 906.7,550.214 916.318,551.386C918.966,551.709 925.061,552.376 920.819,556.303C918.79,558.181 909.077,557.21 906.137,557.833C888.166,561.638 867.766,564.092 849.339,563.775C840.713,563.627 832.023,562.935 823.401,562.48C814.785,562.024 813.938,558.523 823.633,557.409C833.702,556.253 844.034,556.682 854.153,556.669C864.791,556.656 875.376,554.922 885.993,554.212M907.481,530.63C906.539,533.312 905.712,539.468 902.102,539.872C897.046,540.437 896.209,531.756 896.395,528.582C896.621,524.749 898,518.383 902.763,519.712C906.786,520.832 907.189,527.563 907.481,530.63M876.872,528.666C877.611,525.794 877.974,519.318 882.036,519.098C886.576,518.853 887.873,525.6 887.843,528.833C887.813,531.903 886.678,537.699 883.063,538.408C878.162,539.369 877.723,531.948 876.872,528.666M825.896,533.818C824.426,537.27 823.452,542.025 818.9,539.671C815.38,537.851 814.89,530.511 815.553,527.149C816.241,523.667 817.698,519.673 821.699,521.239C826.313,523.046 825.847,530.017 825.896,533.819M864.499,530.63C860.159,543.783 852.246,534.884 855.251,525.064C858.393,514.8 864.1,524.769 864.499,530.63M843.358,531.281C842.153,533.597 840.871,538.593 837.623,538.067C833.641,537.421 833.513,529.758 833.95,526.904C834.331,524.406 835.453,520.243 838.786,520.297C843.602,520.375 843.279,528.283 843.358,531.281M929.91,533.806C926.68,541.053 922.237,534.81 923.659,529.663C925.768,522.03 929.727,528.793 929.91,533.806"/>
            <path d="M850.806,556.679L840.223,556.639C843.753,555.974 847.283,555.715 850.806,556.679M920.907,551.356L911.73,551.416C914.784,550.499 917.843,550.479 920.907,551.356M885.993,554.212L878.648,554.704L885.993,554.212M825.896,533.818C825.874,532.06 825.85,530.302 825.829,528.548C826.734,530.296 826.671,532.052 825.896,533.818M845.09,563.738L849.339,563.776L845.091,563.738M821.245,562.48L825.55,562.48L821.245,562.48M833.037,556.83L827.038,557.323L833.037,556.831M860.077,556.657L854.153,556.669C856.127,555.837 858.101,555.813 860.077,556.657M843.358,531.281C843.309,529.449 843.261,527.617 843.215,525.787C843.265,527.62 843.311,529.451 843.358,531.281M897.214,553.547L891.979,554.02L897.214,553.547M929.91,533.806L929.741,529.125L929.91,533.805M907.481,530.63L907.161,527.267L907.481,530.63M864.499,530.63L864.264,527.176L864.499,530.63M237.863,192.1C233.084,190.846 232.188,184.13 232.956,180.005L235.569,174.042L234.549,171.837C234.985,167.743 233.869,165.964 238.573,167.622C247.313,170.704 248.71,191.784 237.863,192.1M308.604,179.115C312.541,178.805 319.692,183.39 315.774,187.826C313.345,190.574 305.344,189.274 302.08,189.848C297.751,190.609 293.236,191.65 295.578,185.166C297.418,180.074 303.985,178.982 308.604,179.115M304.462,209.614C300.462,206.407 302.248,191.8 308.334,194.428C314.594,197.133 307.799,207.506 304.462,209.614"/>
            <path d="M232.956,180.005C232.956,181.542 232.955,183.08 232.952,184.61C232.118,183.07 232.144,181.537 232.956,180.005M237.863,192.1C238.678,192.077 239.494,192.053 240.299,192.032C239.48,192.058 238.672,192.079 237.863,192.1M731.645,612.767C731.271,619.411 724.136,614.499 724.642,610.054C725.562,601.988 730.122,609.959 731.645,612.767"/>
        </g>
    </g>
</svg>
