<?xml version="1.0" encoding="UTF-8" standalone="no"?>
<!DOCTYPE svg PUBLIC "-//W3C//DTD SVG 1.1//EN" "http://www.w3.org/Graphics/SVG/1.1/DTD/svg11.dtd">
<svg width="100%" height="100%" viewBox="0 0 41 41" version="1.1" xmlns="http://www.w3.org/2000/svg" xmlns:xlink="http://www.w3.org/1999/xlink" xml:space="preserve" xmlns:serif="http://www.serif.com/" style="fill-rule:evenodd;clip-rule:evenodd;stroke-linejoin:round;stroke-miterlimit:2;">
    <g transform="matrix(1,0,0,1,-184,-13087)">
        <g id="Youtube_40x40_black" transform="matrix(0.0738007,0,0,0.0433839,187.513,12533.7)">
            <rect x="-43" y="12767" width="542" height="922" style="fill:none;"/>
            <g id="bxl-trello" transform="matrix(0.630857,0,0,1.07316,-94.9988,12678.5)">
                <path d="M800,128L224,128C170.965,128 128,170.965 128,224L128,800C128,852.992 170.965,896 224,896L800,896C852.992,896 896,852.992 896,800L896,224C896,170.965 852.992,128 800,128Z" style="fill:rgb(81,82,92);fill-rule:nonzero;"/>
            </g>
            <g id="bxl-youtube" transform="matrix(0.33875,0,0,0.57625,54.6604,12932.8)">
                <path d="M921.301,307.328C911.488,270.72 882.688,241.835 846.122,231.979C779.306,213.632 511.999,213.334 511.999,213.334C511.999,213.334 244.735,213.035 177.876,230.571C142.036,240.342 112.425,269.867 102.527,306.432C84.906,373.248 84.735,511.829 84.735,511.829C84.735,511.829 84.564,651.093 102.058,717.226C111.871,753.791 140.671,782.677 177.279,792.533C244.778,810.88 511.359,811.178 511.359,811.178C511.359,811.178 778.666,811.477 845.482,793.983C882.005,784.17 910.933,755.327 920.874,718.762C938.538,651.989 938.666,513.45 938.666,513.45C938.666,513.45 939.519,374.143 921.301,307.327L921.301,307.328ZM426.496,640.213L426.709,384.213L648.874,512.426L426.495,640.213L426.496,640.213Z" style="fill:white;fill-rule:nonzero;"/>
            </g>
        </g>
    </g>
</svg>
